<svg width="187" height="160" viewBox="0 0 187 160" fill="none" xmlns="http://www.w3.org/2000/svg">
    <path d="M81.5481 1.50065C113.38 -2.07129 142.916 13.7649 158.35 39.5796" stroke="#C3ED1C" stroke-width="0.25" stroke-miterlimit="10"/>
    <path d="M81.9368 1.45702C115.726 -2.33487 147.071 29.8214 151.945 73.2794C156.82 116.737 133.377 155.04 99.5871 158.832" stroke="#C3ED1C" stroke-width="0.25" stroke-miterlimit="10"/>
    <path d="M82.3257 1.4131C106.462 -1.29489 129.979 31.7376 134.853 75.1957C139.727 118.654 124.112 156.078 99.976 158.788" stroke="#C3ED1C" stroke-width="0.25" stroke-miterlimit="10"/>
    <path d="M82.7144 1.3686C97.1967 -0.257247 112.887 33.6551 117.76 77.1131C122.634 120.571 114.845 157.117 100.363 158.743" stroke="#C3ED1C" stroke-width="0.25" stroke-miterlimit="10"/>
    <path d="M83.1013 1.32461C87.9282 0.782657 95.7929 35.573 100.667 79.031C105.542 122.489 105.579 158.157 100.752 158.699" stroke="#C3ED1C" stroke-width="0.25" stroke-miterlimit="10"/>
    <path d="M83.4902 1.28223C78.6633 1.82418 78.7002 37.4926 83.5746 80.9506C88.4489 124.409 96.3119 159.199 101.141 158.657" stroke="#C3ED1C" stroke-width="0.25" stroke-miterlimit="10"/>
    <path d="M83.8788 1.23828C69.3965 2.86413 61.6092 39.4105 66.4818 82.8686C71.3561 126.327 87.0469 160.239 101.527 158.613" stroke="#C3ED1C" stroke-width="0.25" stroke-miterlimit="10"/>
    <path d="M84.2676 1.19434C60.1316 3.90232 44.5165 41.3285 49.3908 84.7865C54.2652 128.245 77.782 161.279 101.918 158.569" stroke="#C3ED1C" stroke-width="0.25" stroke-miterlimit="10"/>
    <path d="M84.6563 1.15039C50.8648 4.94228 27.4237 43.2465 32.298 86.7045C37.1724 130.163 68.5152 162.319 102.307 158.527" stroke="#C3ED1C" stroke-width="0.25" stroke-miterlimit="10"/>
    <path d="M26.4509 122.823C32.6076 132.501 59.2485 163.357 102.694 158.481" stroke="#C3ED1C" stroke-width="0.25" stroke-miterlimit="10"/>
    <path d="M40.6448 21.18C44.2403 20.3952 47.8446 19.6597 51.4595 18.9735C54.7858 18.3401 58.1157 17.7488 61.4562 17.1981C64.6084 16.6773 67.7694 16.1934 70.9357 15.7464C74.0018 15.3136 77.0748 14.9142 80.1497 14.5499C83.1999 14.1875 86.2536 13.8602 89.3091 13.5663C92.412 13.2654 95.5168 13.0033 98.6268 12.7728C101.856 12.5352 105.091 12.3346 108.326 12.1727C111.772 11.9968 115.22 11.8648 118.669 11.7786C122.446 11.6783 126.221 11.6343 129.994 11.6414" stroke="#C3ED1C" stroke-width="0.25" stroke-miterlimit="10"/>
    <path d="M23.4341 43.6447C28.3436 42.5397 33.2707 41.5015 38.2119 40.5303C42.9491 39.5994 47.6985 38.7284 52.4568 37.9208C57.076 37.136 61.7041 36.4093 66.341 35.7389C70.8987 35.0808 75.4652 34.4755 80.0388 33.9266C84.593 33.3811 89.1507 32.8902 93.7102 32.4538C98.3101 32.0121 102.914 31.6268 107.521 31.2978C112.222 30.9599 116.926 30.6801 121.632 30.4567C126.494 30.2244 131.354 30.0537 136.212 29.9464C141.293 29.832 146.371 29.7828 151.446 29.8004" stroke="#C3ED1C" stroke-width="0.25" stroke-miterlimit="10"/>
    <path d="M16.4559 63.1633C21.9002 62.1234 27.355 61.1363 32.8187 60.1984C38.2031 59.2764 43.5947 58.4001 48.995 57.5731C54.3372 56.7567 59.6847 55.986 65.0411 55.2628C70.364 54.5432 75.6922 53.8692 81.0291 53.2428C86.3538 52.6164 91.6837 52.034 97.0172 51.5008C102.368 50.9624 107.725 50.4697 113.081 50.0228C118.479 49.5706 123.88 49.1659 129.28 48.8034C134.745 48.4374 140.211 48.1189 145.678 47.8444C150.547 47.6016 155.416 47.3922 160.285 47.2198C160.966 47.1969 161.647 47.174 162.329 47.1494" stroke="#C3ED1C" stroke-width="0.25" stroke-miterlimit="10"/>
    <path d="M14.718 81.157C20.3839 80.3634 26.0499 79.5909 31.7193 78.8343C37.3799 78.0812 43.0441 77.3457 48.7083 76.6278C54.3671 75.9099 60.0278 75.2113 65.692 74.5286C71.3526 73.8477 77.015 73.1843 82.6809 72.5385C88.3433 71.8893 94.0093 71.2593 99.6769 70.6505C105.345 70.0364 111.018 69.4417 116.689 68.8628C122.365 68.2839 128.043 67.7208 133.723 67.1754C139.41 66.6299 145.098 66.0985 150.786 65.5865C154.614 65.2398 158.442 64.9002 162.268 64.5712C164.138 64.4093 166.011 64.2492 167.883 64.0908" stroke="#C3ED1C" stroke-width="0.25" stroke-miterlimit="10"/>
    <path d="M16.9292 98.4339C22.611 97.9535 28.2909 97.452 33.9709 96.9347C39.6386 96.4157 45.3045 95.879 50.9705 95.3247C56.6258 94.7722 62.2812 94.2004 67.9348 93.6109C73.5849 93.0232 79.2297 92.4179 84.8763 91.795C90.5211 91.1739 96.1606 90.5334 101.8 89.8753C107.443 89.2207 113.081 88.5468 118.719 87.8571C124.362 87.1673 130.003 86.46 135.643 85.735C141.291 85.0101 146.936 84.2693 152.579 83.5127C156.452 82.9936 160.324 82.4657 164.196 81.9308C165.974 81.6845 167.752 81.4381 169.531 81.1865" stroke="#C3ED1C" stroke-width="0.25" stroke-miterlimit="10"/>
    <path d="M167.269 99.0674C166.871 99.1466 166.47 99.2205 166.071 99.2979C161.072 100.248 156.06 101.163 151.04 102.038C145.71 102.968 140.371 103.855 135.023 104.696C129.743 105.53 124.453 106.319 119.158 107.063C113.904 107.804 108.645 108.499 103.376 109.152C98.129 109.801 92.8711 110.408 87.6116 110.971C82.3414 111.536 77.0678 112.055 71.7906 112.528C66.4765 113.005 61.1589 113.436 55.8377 113.823C50.455 114.212 45.067 114.553 39.679 114.847C34.2031 115.146 27.3604 115.394 21.8792 115.592C21.8792 115.592 24.7622 120.543 26.6286 123.179" stroke="#C3ED1C" stroke-width="0.25" stroke-miterlimit="10"/>
    <path d="M34.7185 133.03C39.621 133.001 45.1339 132.98 50.0346 132.822C54.7207 132.672 59.4086 132.465 64.0895 132.197C68.6278 131.935 73.1609 131.622 77.6905 131.254C82.1409 130.894 86.586 130.478 91.0277 130.014C95.4464 129.549 99.8599 129.035 104.266 128.467C108.711 127.897 113.148 127.276 117.575 126.602C122.098 125.916 126.61 125.175 131.111 124.381C135.771 123.563 140.42 122.685 145.055 121.753C149.91 120.778 154.753 119.738 159.575 118.642" stroke="#C3ED1C" stroke-width="0.25" stroke-miterlimit="10"/>
    <path d="M59.5107 151.137C62.8477 151.074 66.1828 150.972 69.518 150.824C72.577 150.694 75.6325 150.527 78.688 150.326C81.5676 150.138 84.4454 149.918 87.3214 149.67C90.106 149.429 92.8871 149.158 95.6646 148.862C98.4211 148.567 101.174 148.246 103.925 147.894C106.717 147.541 109.508 147.157 112.295 146.745C115.194 146.32 118.087 145.86 120.977 145.371C124.065 144.85 127.146 144.293 130.218 143.7C133.597 143.052 136.964 142.361 140.324 141.625" stroke="#C3ED1C" stroke-width="0.25" stroke-miterlimit="10"/>
    <path d="M169.844 54.3242C170.708 57.2926 171.406 60.3015 171.935 63.335C172.201 64.8518 172.424 66.3738 172.604 67.8993C172.783 69.4249 172.928 70.954 172.998 72.4866C173.385 78.6081 173.1 84.7561 172.147 90.7809C172.089 91.1574 172.043 91.5357 171.972 91.9105L171.751 93.0331L171.307 95.2748C171.269 95.4613 171.237 95.6479 171.193 95.8344L171.056 96.3886L170.78 97.4954L170.224 99.7072L169.564 101.889L169.234 102.978L169.068 103.522L168.876 104.059L168.111 106.202L167.728 107.272L167.295 108.322C165.033 113.942 162.162 119.291 158.762 124.253C158.56 124.57 158.336 124.873 158.113 125.175L157.446 126.085C156.999 126.689 156.565 127.301 156.107 127.897L154.691 129.648C154.216 130.229 153.759 130.822 153.249 131.373L151.754 133.051L151.381 133.47C151.258 133.611 151.133 133.75 150.999 133.882L150.213 134.684L148.642 136.285L148.445 136.486L148.239 136.676L147.828 137.058L147.006 137.82L146.185 138.58C145.908 138.83 145.645 139.095 145.353 139.329L143.639 140.77L142.784 141.49C142.501 141.731 142.195 141.946 141.901 142.176L140.125 143.531C139.542 143.994 138.918 144.4 138.308 144.826L136.471 146.09C135.848 146.494 135.21 146.876 134.58 147.27L133.634 147.856C133.317 148.05 133.006 148.252 132.679 148.425C127.535 151.388 122.086 153.774 116.458 155.524C110.833 157.279 105.032 158.4 99.1985 158.878C104.991 158.035 110.671 156.559 116.1 154.485C121.53 152.412 126.708 149.744 131.518 146.556C131.825 146.368 132.116 146.153 132.411 145.945L133.294 145.319C133.88 144.898 134.475 144.492 135.052 144.063L136.751 142.729C137.314 142.282 137.892 141.853 138.425 141.37L140.056 139.959C140.325 139.722 140.605 139.497 140.863 139.247L141.643 138.502L143.2 137.017C143.465 136.776 143.701 136.505 143.952 136.248L144.693 135.469L145.434 134.691L145.805 134.302L145.989 134.109L146.165 133.906L147.569 132.282L148.271 131.471C148.391 131.337 148.501 131.198 148.61 131.056L148.941 130.634L150.264 128.948C150.716 128.395 151.115 127.802 151.532 127.222L152.771 125.478C153.166 124.885 153.543 124.28 153.93 123.681L154.507 122.782C154.7 122.483 154.894 122.186 155.066 121.873C157.983 116.984 160.357 111.797 162.134 106.434L162.477 105.433L162.769 104.414L163.355 102.382L163.501 101.875L163.622 101.359L163.865 100.33L164.35 98.2749L164.734 96.1986L164.926 95.1622L165.021 94.6449C165.052 94.4725 165.068 94.2965 165.094 94.1223L165.372 92.0337L165.511 90.9903C165.554 90.6419 165.573 90.2917 165.605 89.9416C166.131 84.3567 166.036 78.7366 165.335 73.2062C165.188 71.8214 164.97 70.4437 164.72 69.0765C164.472 67.7076 164.183 66.3474 163.86 64.9978C163.211 62.2986 162.415 59.6417 161.478 57.041L169.844 54.3277V54.3242Z" fill="url(#paint0_linear_128_39)"/>
    <path d="M155.891 25.5449L152.31 73.6359L166.391 57.9334L187 62.3852L155.891 25.5449Z" fill="#201CED"/>
    <path d="M85.0451 1.1082C80.1145 1.85251 75.2718 3.04902 70.5997 4.68542C65.9277 6.32183 61.428 8.39637 57.1799 10.8686C48.6784 15.8095 41.1971 22.3481 35.2075 29.9741C29.2074 37.593 24.72 46.3082 22.004 55.4686C19.2792 64.6307 18.3522 74.2344 19.2071 83.62L10.4242 84.0793C10.338 78.8181 10.7443 73.564 11.6397 68.4102C12.535 63.2564 13.9176 58.2065 15.7576 53.3483C19.4358 43.6301 24.9399 34.6897 31.8547 27.1271C38.759 19.5556 47.0547 13.3496 56.1455 8.926C60.6892 6.71246 65.4281 4.94056 70.2761 3.6332C75.1223 2.32583 80.0758 1.48651 85.0469 1.10645L85.0451 1.1082Z" fill="url(#paint1_linear_128_39)"/>
    <path d="M16.1077 108.663L0 74.4443L14.7163 81.9946L28.5636 72.9521L16.1077 108.663Z" fill="url(#paint2_linear_128_39)"/>
    <defs>
    <linearGradient id="paint0_linear_128_39" x1="167.363" y1="61.0315" x2="110.907" y2="176.399" gradientUnits="userSpaceOnUse">
    <stop stop-color="#201CED"/>
    <stop offset="1" stop-color="#C3ED1C"/>
    </linearGradient>
    <linearGradient id="paint1_linear_128_39" x1="53.8868" y1="15.6609" x2="37.3508" y2="63.9305" gradientUnits="userSpaceOnUse">
    <stop stop-color="#C3ED1C"/>
    <stop offset="1" stop-color="#201CED"/>
    </linearGradient>
    <linearGradient id="paint2_linear_128_39" x1="16.6381" y1="79.2162" x2="8.85116" y2="99.4291" gradientUnits="userSpaceOnUse">
    <stop stop-color="#201CED"/>
    <stop offset="1" stop-color="#201CED"/>
    </linearGradient>
    </defs>
    </svg>
    