<svg width="227" height="200" viewBox="0 0 227 200" fill="none" xmlns="http://www.w3.org/2000/svg">
<g filter="url(#filter0_d_128_39)">
<path d="M99.5481 19.5007C131.38 15.9287 160.916 31.7649 176.35 57.5796" stroke="#C3ED1C" stroke-miterlimit="10"/>
<path d="M99.9368 19.457C133.726 15.6651 165.071 47.8214 169.945 91.2794C174.82 134.737 151.377 173.04 117.587 176.832" stroke="#C3ED1C" stroke-miterlimit="10"/>
<path d="M100.326 19.4131C124.462 16.7051 147.979 49.7376 152.853 93.1957C157.727 136.654 142.112 174.078 117.976 176.788" stroke="#C3ED1C" stroke-miterlimit="10"/>
<path d="M100.714 19.3686C115.197 17.7428 130.887 51.6551 135.76 95.1131C140.634 138.571 132.845 175.117 118.363 176.743" stroke="#C3ED1C" stroke-miterlimit="10"/>
<path d="M101.101 19.3246C105.928 18.7827 113.793 53.573 118.667 97.031C123.542 140.489 123.579 176.157 118.752 176.699" stroke="#C3ED1C" stroke-miterlimit="10"/>
<path d="M101.49 19.2822C96.6633 19.8242 96.7002 55.4926 101.575 98.9506C106.449 142.409 114.312 177.199 119.141 176.657" stroke="#C3ED1C" stroke-miterlimit="10"/>
<path d="M101.879 19.2383C87.3965 20.8641 79.6092 57.4105 84.4818 100.869C89.3561 144.327 105.047 178.239 119.527 176.613" stroke="#C3ED1C" stroke-miterlimit="10"/>
<path d="M102.268 19.1943C78.1316 21.9023 62.5165 59.3285 67.3908 102.787C72.2652 146.245 95.782 179.279 119.918 176.569" stroke="#C3ED1C" stroke-miterlimit="10"/>
<path d="M102.656 19.1504C68.8648 22.9423 45.4237 61.2465 50.298 104.705C55.1724 148.163 86.5152 180.319 120.307 176.527" stroke="#C3ED1C" stroke-miterlimit="10"/>
<path d="M44.4509 140.823C50.6076 150.501 77.2485 181.357 120.694 176.481" stroke="#C3ED1C" stroke-miterlimit="10"/>
<path d="M58.6448 39.18C62.2403 38.3952 65.8446 37.6597 69.4595 36.9735C72.7858 36.3401 76.1157 35.7488 79.4562 35.1981C82.6084 34.6773 85.7694 34.1934 88.9357 33.7464C92.0018 33.3136 95.0748 32.9142 98.1497 32.5499C101.2 32.1875 104.254 31.8602 107.309 31.5663C110.412 31.2654 113.517 31.0033 116.627 30.7728C119.856 30.5352 123.091 30.3346 126.326 30.1727C129.772 29.9968 133.22 29.8648 136.669 29.7786C140.446 29.6783 144.221 29.6343 147.994 29.6414" stroke="#C3ED1C" stroke-miterlimit="10"/>
<path d="M41.4341 61.6447C46.3436 60.5397 51.2707 59.5015 56.2119 58.5303C60.9491 57.5994 65.6985 56.7284 70.4568 55.9208C75.076 55.136 79.7041 54.4093 84.341 53.7389C88.8987 53.0808 93.4652 52.4755 98.0388 51.9266C102.593 51.3811 107.151 50.8902 111.71 50.4538C116.31 50.0121 120.914 49.6268 125.521 49.2978C130.222 48.9599 134.926 48.6801 139.632 48.4567C144.494 48.2244 149.354 48.0537 154.212 47.9464C159.293 47.832 164.371 47.7828 169.446 47.8004" stroke="#C3ED1C" stroke-miterlimit="10"/>
<path d="M34.4559 81.1633C39.9002 80.1234 45.355 79.1363 50.8187 78.1984C56.2031 77.2764 61.5947 76.4001 66.995 75.5731C72.3372 74.7567 77.6847 73.986 83.0411 73.2628C88.364 72.5432 93.6922 71.8692 99.0291 71.2428C104.354 70.6164 109.684 70.034 115.017 69.5008C120.368 68.9624 125.725 68.4697 131.081 68.0228C136.479 67.5706 141.88 67.1659 147.28 66.8034C152.745 66.4374 158.211 66.1189 163.678 65.8444C168.547 65.6016 173.416 65.3922 178.285 65.2198C178.966 65.1969 179.647 65.174 180.329 65.1494" stroke="#C3ED1C" stroke-miterlimit="10"/>
<path d="M32.718 99.157C38.3839 98.3634 44.0499 97.5909 49.7193 96.8343C55.3799 96.0812 61.0441 95.3457 66.7083 94.6278C72.3671 93.9099 78.0278 93.2113 83.692 92.5286C89.3526 91.8477 95.015 91.1843 100.681 90.5385C106.343 89.8893 112.009 89.2593 117.677 88.6505C123.345 88.0364 129.018 87.4417 134.689 86.8628C140.365 86.2839 146.043 85.7208 151.723 85.1754C157.41 84.6299 163.098 84.0985 168.786 83.5865C172.614 83.2398 176.442 82.9002 180.268 82.5712C182.138 82.4093 184.011 82.2492 185.883 82.0908" stroke="#C3ED1C" stroke-miterlimit="10"/>
<path d="M34.9292 116.434C40.611 115.954 46.2909 115.452 51.9709 114.935C57.6386 114.416 63.3045 113.879 68.9705 113.325C74.6258 112.772 80.2812 112.2 85.9348 111.611C91.5849 111.023 97.2297 110.418 102.876 109.795C108.521 109.174 114.161 108.533 119.8 107.875C125.443 107.221 131.081 106.547 136.719 105.857C142.362 105.167 148.003 104.46 153.643 103.735C159.291 103.01 164.936 102.269 170.579 101.513C174.452 100.994 178.324 100.466 182.196 99.9308C183.974 99.6845 185.752 99.4381 187.531 99.1865" stroke="#C3ED1C" stroke-miterlimit="10"/>
<path d="M185.269 117.067C184.871 117.147 184.47 117.22 184.071 117.298C179.072 118.248 174.06 119.163 169.04 120.038C163.71 120.968 158.371 121.855 153.023 122.696C147.743 123.53 142.453 124.319 137.158 125.063C131.904 125.804 126.645 126.499 121.376 127.152C116.129 127.801 110.871 128.408 105.612 128.971C100.341 129.536 95.0678 130.055 89.7906 130.528C84.4765 131.005 79.1589 131.436 73.8377 131.823C68.455 132.212 63.067 132.553 57.679 132.847C52.2031 133.146 45.3604 133.394 39.8792 133.592C39.8792 133.592 42.7622 138.543 44.6286 141.179" stroke="#C3ED1C" stroke-miterlimit="10"/>
<path d="M52.7185 151.03C57.621 151.001 63.1339 150.98 68.0346 150.822C72.7207 150.672 77.4086 150.465 82.0895 150.197C86.6278 149.935 91.1609 149.622 95.6905 149.254C100.141 148.894 104.586 148.478 109.028 148.014C113.446 147.549 117.86 147.035 122.266 146.467C126.711 145.897 131.148 145.276 135.575 144.602C140.098 143.916 144.61 143.175 149.111 142.381C153.771 141.563 158.42 140.685 163.055 139.753C167.91 138.778 172.753 137.738 177.575 136.642" stroke="#C3ED1C" stroke-miterlimit="10"/>
<path d="M77.5107 169.137C80.8477 169.074 84.1828 168.972 87.518 168.824C90.577 168.694 93.6325 168.527 96.688 168.326C99.5676 168.138 102.445 167.918 105.321 167.67C108.106 167.429 110.887 167.158 113.665 166.862C116.421 166.567 119.174 166.246 121.925 165.894C124.717 165.541 127.508 165.157 130.295 164.745C133.194 164.32 136.087 163.86 138.977 163.371C142.065 162.85 145.146 162.293 148.218 161.7C151.597 161.052 154.964 160.361 158.324 159.625" stroke="#C3ED1C" stroke-miterlimit="10"/>
<g filter="url(#filter1_d_128_39)">
<path d="M187.844 72.3242C188.708 75.2926 189.406 78.3015 189.935 81.335C190.201 82.8518 190.424 84.3738 190.604 85.8993C190.783 87.4249 190.928 88.954 190.998 90.4866C191.385 96.6081 191.1 102.756 190.147 108.781C190.089 109.157 190.043 109.536 189.972 109.911L189.751 111.033L189.307 113.275C189.269 113.461 189.237 113.648 189.193 113.834L189.056 114.389L188.78 115.495L188.224 117.707L187.564 119.889L187.234 120.978L187.068 121.522L186.876 122.059L186.111 124.202L185.728 125.272L185.295 126.322C183.033 131.942 180.162 137.291 176.762 142.253C176.56 142.57 176.336 142.873 176.113 143.175L175.446 144.085C174.999 144.689 174.565 145.301 174.107 145.897L172.691 147.648C172.217 148.229 171.759 148.822 171.249 149.373L169.754 151.051L169.381 151.47C169.258 151.611 169.133 151.75 168.999 151.882L168.213 152.684L166.642 154.285L166.445 154.486L166.239 154.676L165.828 155.058L165.006 155.82L164.185 156.58C163.908 156.83 163.645 157.095 163.353 157.329L161.639 158.77L160.784 159.49C160.501 159.731 160.195 159.946 159.901 160.176L158.125 161.531C157.542 161.994 156.918 162.4 156.308 162.826L154.471 164.09C153.848 164.494 153.21 164.876 152.58 165.27L151.634 165.856C151.317 166.05 151.006 166.252 150.679 166.425C145.535 169.388 140.086 171.774 134.458 173.524C128.833 175.279 123.032 176.4 117.198 176.878C122.991 176.035 128.671 174.559 134.1 172.485C139.53 170.412 144.708 167.744 149.518 164.556C149.825 164.368 150.116 164.153 150.411 163.945L151.294 163.319C151.88 162.898 152.475 162.492 153.052 162.063L154.751 160.729C155.314 160.282 155.892 159.853 156.425 159.37L158.056 157.959C158.325 157.722 158.605 157.497 158.863 157.247L159.643 156.502L161.2 155.017C161.465 154.776 161.701 154.505 161.952 154.248L162.693 153.469L163.434 152.691L163.805 152.302L163.989 152.109L164.165 151.906L165.569 150.282L166.271 149.471C166.391 149.337 166.501 149.198 166.61 149.056L166.941 148.634L168.264 146.948C168.716 146.395 169.115 145.802 169.532 145.222L170.771 143.478C171.166 142.885 171.543 142.28 171.93 141.681L172.507 140.782C172.7 140.483 172.894 140.186 173.066 139.873C175.983 134.984 178.357 129.797 180.134 124.434L180.477 123.433L180.769 122.414L181.355 120.382L181.501 119.875L181.622 119.359L181.865 118.33L182.35 116.275L182.734 114.199L182.926 113.162L183.021 112.645C183.052 112.472 183.068 112.297 183.094 112.122L183.372 110.034L183.511 108.99C183.554 108.642 183.573 108.292 183.605 107.942C184.131 102.357 184.036 96.7366 183.335 91.2062C183.188 89.8214 182.97 88.4437 182.72 87.0765C182.472 85.7076 182.183 84.3474 181.86 82.9978C181.211 80.2986 180.415 77.6417 179.478 75.041L187.844 72.3277V72.3242Z" fill="url(#paint0_linear_128_39)"/>
<path d="M173.891 43.5449L170.31 91.6359L184.391 75.9334L205 80.3852L173.891 43.5449Z" fill="#201CED"/>
</g>
<g filter="url(#filter2_d_128_39)">
<path d="M103.045 19.1082C98.1145 19.8525 93.2718 21.049 88.5997 22.6854C83.9277 24.3218 79.428 26.3964 75.1799 28.8686C66.6784 33.8095 59.1971 40.3481 53.2075 47.9741C47.2074 55.593 42.72 64.3082 40.004 73.4686C37.2792 82.6307 36.3522 92.2344 37.2071 101.62L28.4242 102.079C28.338 96.8181 28.7443 91.564 29.6397 86.4102C30.535 81.2564 31.9176 76.2065 33.7576 71.3483C37.4358 61.6301 42.9399 52.6897 49.8547 45.1271C56.759 37.5556 65.0547 31.3496 74.1456 26.926C78.6892 24.7125 83.4281 22.9406 88.2761 21.6332C93.1223 20.3258 98.0758 19.4865 103.047 19.1064L103.045 19.1082Z" fill="url(#paint1_linear_128_39)"/>
<path d="M34.1077 126.663L18 92.4443L32.7163 99.9946L46.5636 90.9521L34.1077 126.663Z" fill="url(#paint2_linear_128_39)"/>
</g>
</g>
<defs>
<filter id="filter0_d_128_39" x="0" y="0.5" width="227" height="199" filterUnits="userSpaceOnUse" color-interpolation-filters="sRGB">
<feFlood flood-opacity="0" result="BackgroundImageFix"/>
<feColorMatrix in="SourceAlpha" type="matrix" values="0 0 0 0 0 0 0 0 0 0 0 0 0 0 0 0 0 0 127 0" result="hardAlpha"/>
<feOffset dx="2" dy="2"/>
<feGaussianBlur stdDeviation="10"/>
<feColorMatrix type="matrix" values="0 0 0 0 0.76549 0 0 0 0 0.929412 0 0 0 0 0.109804 0 0 0 1 0"/>
<feBlend mode="normal" in2="BackgroundImageFix" result="effect1_dropShadow_128_39"/>
<feBlend mode="normal" in="SourceGraphic" in2="effect1_dropShadow_128_39" result="shape"/>
</filter>
<filter id="filter1_d_128_39" x="115.198" y="41.5449" width="95.8015" height="141.333" filterUnits="userSpaceOnUse" color-interpolation-filters="sRGB">
<feFlood flood-opacity="0" result="BackgroundImageFix"/>
<feColorMatrix in="SourceAlpha" type="matrix" values="0 0 0 0 0 0 0 0 0 0 0 0 0 0 0 0 0 0 127 0" result="hardAlpha"/>
<feOffset dx="2" dy="2"/>
<feGaussianBlur stdDeviation="2"/>
<feComposite in2="hardAlpha" operator="out"/>
<feColorMatrix type="matrix" values="0 0 0 0 0.294118 0 0 0 0 0.301961 0 0 0 0 0.329412 0 0 0 1 0"/>
<feBlend mode="normal" in2="BackgroundImageFix" result="effect1_dropShadow_128_39"/>
<feBlend mode="normal" in="SourceGraphic" in2="effect1_dropShadow_128_39" result="shape"/>
</filter>
<filter id="filter2_d_128_39" x="13" y="14.1064" width="93.0469" height="115.557" filterUnits="userSpaceOnUse" color-interpolation-filters="sRGB">
<feFlood flood-opacity="0" result="BackgroundImageFix"/>
<feColorMatrix in="SourceAlpha" type="matrix" values="0 0 0 0 0 0 0 0 0 0 0 0 0 0 0 0 0 0 127 0" result="hardAlpha"/>
<feOffset dx="-1" dy="-1"/>
<feGaussianBlur stdDeviation="2"/>
<feComposite in2="hardAlpha" operator="out"/>
<feColorMatrix type="matrix" values="0 0 0 0 1 0 0 0 0 1 0 0 0 0 1 0 0 0 0.38 0"/>
<feBlend mode="normal" in2="BackgroundImageFix" result="effect1_dropShadow_128_39"/>
<feBlend mode="normal" in="SourceGraphic" in2="effect1_dropShadow_128_39" result="shape"/>
</filter>
<linearGradient id="paint0_linear_128_39" x1="185.363" y1="79.0315" x2="128.907" y2="194.399" gradientUnits="userSpaceOnUse">
<stop stop-color="#201CED"/>
<stop offset="1" stop-color="#C3ED1C"/>
</linearGradient>
<linearGradient id="paint1_linear_128_39" x1="71.8868" y1="33.6609" x2="55.3508" y2="81.9305" gradientUnits="userSpaceOnUse">
<stop stop-color="#C3ED1C"/>
<stop offset="1" stop-color="#201CED"/>
</linearGradient>
<linearGradient id="paint2_linear_128_39" x1="34.6381" y1="97.2162" x2="26.8512" y2="117.429" gradientUnits="userSpaceOnUse">
<stop stop-color="#201CED"/>
<stop offset="1" stop-color="#201CED"/>
</linearGradient>
</defs>
</svg>
