<svg width="187" height="158" viewBox="0 0 634 543" fill="none" xmlns="http://www.w3.org/2000/svg">
    <g filter="url(#filter0_d_128_42)">
        <path d="M343.186 527.64C239.238 534.056 145.88 477.972 99.9299 391.847" stroke="#C3ED1C"
            stroke-miterlimit="10" />
        <path
            d="M341.916 527.719C231.575 534.531 134.981 425.286 126.172 283.716C117.364 142.145 199.68 21.8618 310.021 15.05"
            stroke="#C3ED1C" stroke-miterlimit="10" />
        <path
            d="M340.647 527.799C261.83 532.663 190.798 421.846 181.989 280.276C173.18 138.706 229.935 19.999 308.752 15.1294"
            stroke="#C3ED1C" stroke-miterlimit="10" />
        <path
            d="M339.377 527.878C292.085 530.799 246.609 418.401 237.806 276.831C228.997 135.26 260.195 18.1306 307.488 15.2089"
            stroke="#C3ED1C" stroke-miterlimit="10" />
        <path
            d="M338.113 527.958C322.351 528.932 302.431 414.956 293.623 273.386C284.814 131.816 290.456 16.263 306.218 15.2891"
            stroke="#C3ED1C" stroke-miterlimit="10" />
        <path
            d="M336.844 528.032C352.607 527.058 358.248 411.505 349.44 269.935C340.631 128.365 320.717 14.3889 304.949 15.3626"
            stroke="#C3ED1C" stroke-miterlimit="10" />
        <path
            d="M335.574 528.112C382.867 525.19 414.059 408.06 405.256 266.49C396.448 124.92 350.972 12.5207 303.685 15.4427"
            stroke="#C3ED1C" stroke-miterlimit="10" />
        <path
            d="M334.305 528.191C413.122 523.327 469.876 404.615 461.067 263.045C452.259 121.474 381.227 10.6524 302.41 15.522"
            stroke="#C3ED1C" stroke-miterlimit="10" />
        <path
            d="M333.035 528.271C443.382 521.459 525.693 401.17 516.884 259.599C508.075 118.029 411.487 8.78417 301.14 15.5958"
            stroke="#C3ED1C" stroke-miterlimit="10" />
        <path d="M541.707 143.54C523.277 111.193 441.748 6.92144 299.877 15.681" stroke="#C3ED1C"
            stroke-miterlimit="10" />
        <path
            d="M479.194 470.513C467.392 472.473 455.568 474.272 443.718 475.91C432.814 477.423 421.905 478.799 410.968 480.043C400.648 481.219 390.304 482.275 379.95 483.21C369.923 484.116 359.879 484.912 349.835 485.594C339.871 486.274 329.902 486.84 319.932 487.297C309.807 487.769 299.682 488.116 289.545 488.359C279.019 488.606 268.482 488.732 257.951 488.732C246.732 488.744 235.514 488.613 224.298 488.334C212.018 488.047 199.752 487.578 187.5 486.945"
            stroke="#C3ED1C" stroke-miterlimit="10" />
        <path
            d="M538.713 400.527C522.591 403.312 506.423 405.877 490.22 408.223C474.687 410.471 459.123 412.524 443.54 414.37C428.413 416.164 413.266 417.769 398.1 419.189C383.193 420.583 368.266 421.805 353.325 422.842C338.448 423.872 323.568 424.724 308.691 425.399C293.682 426.085 278.67 426.588 263.656 426.908C248.333 427.241 233.013 427.386 217.696 427.347C201.869 427.313 186.059 427.078 170.264 426.639C153.748 426.187 137.248 425.524 120.771 424.646"
            stroke="#C3ED1C" stroke-miterlimit="10" />
        <path
            d="M564.527 338.426C546.679 340.913 528.806 343.228 510.912 345.381C493.277 347.496 475.627 349.462 457.957 351.266C440.476 353.046 422.986 354.676 405.475 356.152C388.073 357.621 370.662 358.941 353.229 360.106C335.837 361.273 318.434 362.297 301.028 363.16C283.564 364.038 266.091 364.767 248.624 365.347C231.02 365.938 213.418 366.374 195.822 366.674C178.015 366.975 160.215 367.121 142.417 367.125C126.566 367.123 110.72 367.013 94.8803 366.783C92.666 366.747 90.4516 366.711 88.2312 366.68"
            stroke="#C3ED1C" stroke-miterlimit="10" />
        <path
            d="M573.078 280.418C554.55 282.071 536.026 283.656 517.493 285.189C498.989 286.712 480.476 288.177 461.966 289.586C443.474 290.995 424.978 292.341 406.474 293.636C387.982 294.925 369.487 296.157 350.983 297.331C332.49 298.518 313.989 299.641 295.485 300.695C276.981 301.767 258.462 302.775 239.952 303.732C221.425 304.688 202.894 305.592 184.361 306.439C165.805 307.286 147.251 308.086 128.694 308.823C116.208 309.327 103.723 309.807 91.2458 310.253C85.1474 310.475 79.0379 310.69 72.9343 310.9"
            stroke="#C3ED1C" stroke-miterlimit="10" />
        <path
            d="M568.688 224.091C550.16 224.727 531.633 225.431 513.105 226.187C494.615 226.951 476.129 227.772 457.64 228.65C439.186 229.524 420.728 230.461 402.273 231.455C383.83 232.444 365.402 233.49 346.964 234.594C328.533 235.692 310.116 236.853 291.696 238.072C273.265 239.279 254.848 240.549 236.428 241.87C217.991 243.191 199.558 244.569 181.127 246.004C162.667 247.438 144.217 248.923 125.769 250.461C113.107 251.515 100.448 252.598 87.7892 253.704C81.9742 254.214 76.1592 254.724 70.3434 255.251"
            stroke="#C3ED1C" stroke-miterlimit="10" />
        <path
            d="M80.578 197.693C81.8818 197.501 83.1961 197.327 84.5053 197.141C100.893 194.872 117.316 192.72 133.76 190.7C151.219 188.547 168.699 186.539 186.201 184.68C203.484 182.834 220.788 181.137 238.103 179.583C255.285 178.034 272.477 176.634 289.691 175.373C306.836 174.119 324.008 173.004 341.179 172.032C358.385 171.055 375.594 170.228 392.808 169.549C410.142 168.865 427.48 168.329 444.822 167.937C462.365 167.549 479.917 167.316 497.462 167.236C515.292 167.154 537.554 167.458 555.385 167.708C555.385 167.708 546.822 151.201 541.187 142.36"
            stroke="#C3ED1C" stroke-miterlimit="10" />
        <path
            d="M516.507 109.14C500.582 108.438 482.677 107.613 466.736 107.333C451.494 107.058 436.237 106.972 420.994 107.08C406.213 107.195 391.442 107.475 376.673 107.933C362.163 108.381 347.661 109.006 333.162 109.792C318.737 110.581 304.322 111.531 289.921 112.658C275.394 113.785 260.887 115.079 246.4 116.545C231.602 118.036 216.831 119.705 202.084 121.547C186.82 123.443 171.581 125.534 156.378 127.805C140.454 130.176 124.56 132.761 108.726 135.531"
            stroke="#C3ED1C" stroke-miterlimit="10" />
        <path
            d="M438.923 46.4655C428.076 46.1304 417.229 45.9209 406.375 45.8596C396.42 45.7861 386.47 45.8327 376.516 45.9878C367.134 46.1314 357.753 46.3779 348.373 46.7158C339.292 47.0458 330.217 47.4733 321.149 47.9811C312.15 48.4923 303.159 49.084 294.168 49.7785C285.045 50.4721 275.918 51.2627 266.803 52.1453C257.32 53.0553 247.849 54.0744 238.384 55.191C228.275 56.3783 218.177 57.6862 208.107 59.1098C197.029 60.6602 185.984 62.3551 174.955 64.1937"
            stroke="#C3ED1C" stroke-miterlimit="10" />
        <g filter="url(#filter1_d_128_42)">
            <path
                d="M64.9874 342.219C62.6621 332.463 60.8804 322.603 59.651 312.69C59.0334 307.734 58.5538 302.767 58.2176 297.796C57.8814 292.825 57.66 287.848 57.6791 282.872C57.4113 262.979 59.3298 243.109 63.3992 223.746C63.6485 222.535 63.8581 221.317 64.1472 220.115L65.0483 216.514L66.8499 209.324C67.0057 208.726 67.1387 208.127 67.3116 207.53L67.8467 205.756L68.9224 202.216L71.0847 195.141L73.5793 188.179L74.8292 184.704L75.454 182.97L76.1634 181.262L78.9944 174.444L80.4126 171.04L81.9875 167.707C90.2415 149.867 100.428 133.004 112.272 117.48C112.98 116.487 113.754 115.543 114.529 114.599L116.84 111.76C118.389 109.877 119.899 107.964 121.48 106.105L126.362 100.663C127.998 98.8589 129.579 97.012 131.324 95.3105L136.451 90.1147L137.73 88.8185C138.152 88.3824 138.58 87.9523 139.036 87.5465L141.719 85.0746L147.079 80.1419L147.751 79.524L148.45 78.9417L149.848 77.7714L152.639 75.4363L155.429 73.1069C156.367 72.3422 157.266 71.5242 158.252 70.8134L164.049 66.4225L166.942 64.2295C167.9 63.4945 168.929 62.8486 169.92 62.1495L175.908 58.0482C177.874 56.6433 179.967 55.4277 182.018 54.1471L188.186 50.3518C190.274 49.1416 192.409 48.0081 194.518 46.8333L197.686 45.0884C198.745 44.5127 199.789 43.9076 200.879 43.402C218.061 34.6359 236.143 27.7891 254.7 23.0287C273.251 18.2567 292.272 15.5652 311.291 14.9594C292.344 16.7517 273.661 20.6143 255.697 26.4556C237.728 32.291 220.48 40.0937 204.348 49.6435C203.317 50.2035 202.34 50.8519 201.347 51.4767L198.378 53.3629C196.408 54.6304 194.412 55.8508 192.469 57.1483L186.735 61.1938C184.835 62.5504 182.886 63.8475 181.077 65.323L175.554 69.6305C174.642 70.3564 173.697 71.0407 172.817 71.8082L170.166 74.0932L164.871 78.652C163.969 79.3899 163.16 80.2295 162.302 81.021L159.771 83.4262L157.24 85.8257L155.972 87.0253L155.341 87.6225L154.737 88.2494L149.916 93.2834L147.506 95.7974C147.096 96.2113 146.714 96.6436 146.337 97.0877L145.194 98.4022L140.626 103.649C139.069 105.365 137.677 107.222 136.229 109.035L131.926 114.483C130.545 116.34 129.225 118.24 127.871 120.115L125.852 122.935C125.176 123.872 124.499 124.804 123.889 125.791C113.628 141.154 105.078 157.573 98.4425 174.659L97.1669 177.847L96.0541 181.1L93.8235 187.589L93.2676 189.207L92.7901 190.857L91.8356 194.152L89.9269 200.732L88.3462 207.396L87.5562 210.722L87.1641 212.382C87.0335 212.936 86.9536 213.503 86.8398 214.063L85.5998 220.784L84.98 224.142C84.7866 225.264 84.6672 226.395 84.5078 227.524C81.8976 245.531 81.2983 263.753 82.6784 281.781C82.9345 286.291 83.4203 290.79 84.0106 295.259C84.5949 299.734 85.312 304.187 86.145 308.611C87.8168 317.46 89.9696 326.196 92.5942 334.773L64.9879 342.208L64.9874 342.219Z"
                fill="url(#paint0_linear_128_42)" />
            <path d="M105.649 437.709L125.048 282.5L76.784 331.087L10.5771 313.328L105.649 437.709Z"
                fill="#201CED" />
        </g>
        <g filter="url(#filter2_d_128_42)">
            <path
                d="M331.767 528.344C347.899 526.731 363.818 523.64 379.254 519.095C394.691 514.551 409.638 508.559 423.833 501.238C452.239 486.609 477.59 466.639 498.272 442.905C518.988 419.195 534.968 391.689 545.268 362.454C555.596 333.215 560.158 302.254 558.898 271.711L587.494 271.646C586.924 288.703 584.756 305.658 581.015 322.208C577.275 338.759 571.97 354.894 565.21 370.334C551.695 401.22 532.377 429.291 508.7 452.67C485.056 476.08 457.114 494.841 426.878 507.698C411.765 514.133 396.09 519.106 380.135 522.556C364.187 526.007 347.965 527.923 331.761 528.35L331.767 528.344Z"
                fill="url(#paint1_linear_128_42)" />
            <path d="M573.008 191.09L619.788 304.548L573.219 277.706L526.79 304.756L573.008 191.09Z"
                fill="url(#paint2_linear_128_42)" />
        </g>
    </g>
    <defs>
        <filter id="filter0_d_128_42" x="-9.33936" y="-7.65234" width="644.787" height="554.119"
            filterUnits="userSpaceOnUse" color-interpolation-filters="sRGB">
            <feFlood flood-opacity="0" result="BackgroundImageFix" />
            <feColorMatrix in="SourceAlpha" type="matrix"
                values="0 0 0 0 0 0 0 0 0 0 0 0 0 0 0 0 0 0 127 0" result="hardAlpha" />
            <feOffset dx="-4" dy="-2" />
            <feGaussianBlur stdDeviation="3" />
            <feColorMatrix type="matrix"
                values="0 0 0 0 0.656441 0 0 0 0 0.810424 0 0 0 0 0.0405097 0 0 0 1 0" />
            <feBlend mode="normal" in2="BackgroundImageFix" result="effect1_dropShadow_128_42" />
            <feBlend mode="normal" in="SourceGraphic" in2="effect1_dropShadow_128_42" result="shape" />
        </filter>
        <filter id="filter1_d_128_42" x="8.57715" y="12.959" width="308.714" height="430.75"
            filterUnits="userSpaceOnUse" color-interpolation-filters="sRGB">
            <feFlood flood-opacity="0" result="BackgroundImageFix" />
            <feColorMatrix in="SourceAlpha" type="matrix"
                values="0 0 0 0 0 0 0 0 0 0 0 0 0 0 0 0 0 0 127 0" result="hardAlpha" />
            <feOffset dx="2" dy="2" />
            <feGaussianBlur stdDeviation="2" />
            <feComposite in2="hardAlpha" operator="out" />
            <feColorMatrix type="matrix"
                values="0 0 0 0 0.294118 0 0 0 0 0.301961 0 0 0 0 0.329412 0 0 0 1 0" />
            <feBlend mode="normal" in2="BackgroundImageFix" result="effect1_dropShadow_128_42" />
            <feBlend mode="normal" in="SourceGraphic" in2="effect1_dropShadow_128_42" result="shape" />
        </filter>
        <filter id="filter2_d_128_42" x="326.761" y="186.09" width="296.028" height="345.26"
            filterUnits="userSpaceOnUse" color-interpolation-filters="sRGB">
            <feFlood flood-opacity="0" result="BackgroundImageFix" />
            <feColorMatrix in="SourceAlpha" type="matrix"
                values="0 0 0 0 0 0 0 0 0 0 0 0 0 0 0 0 0 0 127 0" result="hardAlpha" />
            <feOffset dx="-1" dy="-1" />
            <feGaussianBlur stdDeviation="2" />
            <feComposite in2="hardAlpha" operator="out" />
            <feColorMatrix type="matrix" values="0 0 0 0 1 0 0 0 0 1 0 0 0 0 1 0 0 0 0.38 0" />
            <feBlend mode="normal" in2="BackgroundImageFix" result="effect1_dropShadow_128_42" />
            <feBlend mode="normal" in="SourceGraphic" in2="effect1_dropShadow_128_42" result="shape" />
        </filter>
        <linearGradient id="paint0_linear_128_42" x1="74.1282" y1="320.893" x2="275.395"
            y2="-44.0842" gradientUnits="userSpaceOnUse">
            <stop stop-color="#201CED" />
            <stop offset="1" stop-color="#C3ED1C" />
        </linearGradient>
        <linearGradient id="paint1_linear_128_42" x1="435.301" y1="486.247" x2="496.567"
            y2="332.465" gradientUnits="userSpaceOnUse">
            <stop stop-color="#C3ED1C" />
            <stop offset="1" stop-color="#201CED" />
        </linearGradient>
        <linearGradient id="paint2_linear_128_42" x1="566.529" y1="286.395" x2="594.976"
            y2="222.131" gradientUnits="userSpaceOnUse">
            <stop stop-color="#201CED" />
            <stop offset="1" stop-color="#201CED" />
        </linearGradient>
    </defs>
</svg>
