<svg width="634" height="543" viewBox="0 0 634 543" fill="none" xmlns="http://www.w3.org/2000/svg">
<g filter="url(#filter0_d_410_859)">
<path d="M343.525 527.292C239.577 533.709 146.219 477.625 100.269 391.499" stroke="#C3ED1C" stroke-miterlimit="10"/>
<path d="M342.256 527.372C231.914 534.184 135.32 424.938 126.512 283.368C117.703 141.798 200.019 21.5142 310.36 14.7023" stroke="#C3ED1C" stroke-miterlimit="10"/>
<path d="M340.986 527.451C262.169 532.315 191.137 421.499 182.328 279.928C173.52 138.358 230.274 19.6514 309.091 14.7818" stroke="#C3ED1C" stroke-miterlimit="10"/>
<path d="M339.717 527.53C292.424 530.452 246.948 418.053 238.145 276.483C229.337 134.913 260.535 17.7829 307.827 14.8612" stroke="#C3ED1C" stroke-miterlimit="10"/>
<path d="M338.453 527.611C322.69 528.585 302.771 414.609 293.962 273.038C285.153 131.468 290.795 15.9154 306.558 14.9414" stroke="#C3ED1C" stroke-miterlimit="10"/>
<path d="M337.184 527.684C352.946 526.71 358.588 411.158 349.779 269.587C340.971 128.017 321.056 14.0413 305.288 15.015" stroke="#C3ED1C" stroke-miterlimit="10"/>
<path d="M335.914 527.764C383.206 524.842 414.399 407.712 405.596 266.142C396.787 124.572 351.311 12.1731 304.024 15.095" stroke="#C3ED1C" stroke-miterlimit="10"/>
<path d="M334.644 527.844C413.461 522.98 470.215 404.267 461.407 262.697C452.598 121.127 381.566 10.3047 302.749 15.1743" stroke="#C3ED1C" stroke-miterlimit="10"/>
<path d="M333.375 527.923C443.722 521.112 526.032 400.822 517.223 259.252C508.415 117.681 411.827 8.43652 301.48 15.2481" stroke="#C3ED1C" stroke-miterlimit="10"/>
<path d="M542.046 143.192C523.616 110.845 442.087 6.57378 300.216 15.3334" stroke="#C3ED1C" stroke-miterlimit="10"/>
<path d="M479.534 470.166C467.731 472.126 455.907 473.925 444.058 475.562C433.153 477.076 422.244 478.452 411.308 479.695C400.987 480.872 390.644 481.927 380.289 482.862C370.263 483.768 360.219 484.564 350.175 485.246C340.211 485.927 330.241 486.492 320.271 486.95C310.146 487.422 300.022 487.768 289.885 488.011C279.359 488.258 268.821 488.384 258.29 488.384C247.071 488.396 235.853 488.266 224.638 487.986C212.357 487.7 200.091 487.231 187.839 486.597" stroke="#C3ED1C" stroke-miterlimit="10"/>
<path d="M539.052 400.179C522.931 402.964 506.763 405.529 490.56 407.876C475.026 410.124 459.462 412.176 443.88 414.022C428.752 415.816 413.606 417.421 398.439 418.842C383.532 420.236 368.605 421.457 353.665 422.495C338.787 423.524 323.907 424.376 309.03 425.052C294.021 425.738 279.01 426.24 263.996 426.56C248.672 426.893 233.352 427.038 218.035 427C202.209 426.965 186.398 426.731 170.603 426.292C154.087 425.839 137.588 425.177 121.11 424.298" stroke="#C3ED1C" stroke-miterlimit="10"/>
<path d="M564.866 338.078C547.018 340.566 529.145 342.88 511.251 345.033C493.616 347.148 475.967 349.114 458.296 350.918C440.816 352.698 423.326 354.329 405.815 355.804C388.413 357.274 371.001 358.594 353.569 359.759C336.176 360.926 318.774 361.949 301.368 362.813C283.904 363.691 266.43 364.419 248.964 365C231.359 365.59 213.757 366.027 196.162 366.327C178.354 366.627 160.554 366.774 142.756 366.778C126.905 366.776 111.059 366.666 95.2197 366.436C93.0053 366.4 90.7909 366.363 88.5706 366.333" stroke="#C3ED1C" stroke-miterlimit="10"/>
<path d="M573.417 280.07C554.889 281.723 536.365 283.308 517.832 284.841C499.328 286.364 480.815 287.83 462.306 289.238C443.813 290.647 425.318 291.993 406.814 293.288C388.321 294.577 369.826 295.809 351.322 296.984C332.829 298.17 314.328 299.293 295.824 300.347C277.32 301.419 258.802 302.427 240.291 303.384C221.764 304.34 203.234 305.245 184.7 306.092C166.144 306.938 147.59 307.738 129.034 308.476C116.548 308.979 104.063 309.459 91.5852 309.906C85.4868 310.127 79.3772 310.342 73.2737 310.552" stroke="#C3ED1C" stroke-miterlimit="10"/>
<path d="M569.027 223.743C550.499 224.379 531.973 225.084 513.444 225.84C494.955 226.603 476.469 227.424 457.98 228.302C439.525 229.176 421.067 230.113 402.613 231.107C384.17 232.096 365.741 233.143 347.304 234.246C328.872 235.344 310.455 236.506 292.035 237.724C273.604 238.931 255.187 240.201 236.767 241.523C218.331 242.843 199.897 244.221 181.466 245.656C163.007 247.09 144.556 248.576 126.108 250.113C113.446 251.167 100.788 252.25 88.1285 253.356C82.3136 253.866 76.4986 254.376 70.6827 254.903" stroke="#C3ED1C" stroke-miterlimit="10"/>
<path d="M80.9173 197.346C82.2211 197.154 83.5355 196.979 84.8447 196.793C101.233 194.524 117.655 192.372 134.099 190.352C151.558 188.2 169.038 186.191 186.54 184.333C203.823 182.486 221.128 180.789 238.442 179.235C255.624 177.686 272.817 176.287 290.031 175.025C307.175 173.771 324.348 172.656 341.519 171.684C358.724 170.708 375.934 169.88 393.147 169.201C410.481 168.517 427.819 167.982 445.162 167.589C462.704 167.201 480.257 166.968 497.801 166.889C515.632 166.806 537.893 167.111 555.725 167.36C555.725 167.36 547.162 150.853 541.527 142.012" stroke="#C3ED1C" stroke-miterlimit="10"/>
<path d="M516.847 108.793C500.922 108.09 483.016 107.266 467.076 106.985C451.834 106.711 436.577 106.624 421.333 106.733C406.553 106.847 391.781 107.127 377.013 107.585C362.502 108.033 348 108.659 333.501 109.444C319.077 110.233 304.661 111.183 290.26 112.311C275.733 113.438 261.226 114.731 246.739 116.197C231.942 117.688 217.17 119.357 202.424 121.199C187.16 123.095 171.92 125.186 156.717 127.457C140.794 129.829 124.9 132.413 109.065 135.183" stroke="#C3ED1C" stroke-miterlimit="10"/>
<path d="M439.262 46.1184C428.416 45.7832 417.569 45.5737 406.714 45.5125C396.759 45.4389 386.81 45.4856 376.855 45.6406C367.474 45.7842 358.093 46.0307 348.713 46.3687C339.631 46.6987 330.556 47.1261 321.489 47.6339C312.49 48.1452 303.498 48.7368 294.507 49.4313C285.384 50.1249 276.257 50.9155 267.142 51.7981C257.659 52.7081 248.188 53.7272 238.724 54.8438C228.614 56.0311 218.516 57.339 208.447 58.7626C197.369 60.313 186.324 62.0079 175.294 63.8465" stroke="#C3ED1C" stroke-miterlimit="10"/>
<g filter="url(#filter1_d_410_859)">
<path d="M65.3267 341.871C63.0015 332.115 61.2197 322.255 59.9903 312.342C59.3728 307.386 58.8932 302.419 58.557 297.448C58.2208 292.477 57.9994 287.5 58.0184 282.524C57.7506 262.631 59.6692 242.761 63.7385 223.398C63.9879 222.188 64.1975 220.97 64.4865 219.767L65.3876 216.166L67.1893 208.976C67.3451 208.378 67.478 207.779 67.651 207.182L68.1861 205.409L69.2617 201.868L71.4241 194.793L73.9187 187.832L75.1686 184.357L75.7934 182.622L76.5027 180.915L79.3338 174.096L80.7519 170.692L82.3269 167.36C90.5808 149.52 100.768 132.656 112.611 117.133C113.319 116.139 114.094 115.195 114.868 114.251L117.18 111.412C118.728 109.529 120.238 107.616 121.82 105.758L126.701 100.315C128.337 98.5112 129.918 96.6644 131.664 94.9628L136.79 89.7671L138.069 88.4708C138.492 88.0348 138.92 87.6047 139.375 87.1988L142.058 84.7269L147.418 79.7942L148.09 79.1763L148.789 78.594L150.188 77.4238L152.978 75.0886L155.769 72.7592C156.706 71.9945 157.606 71.1766 158.592 70.4657L164.388 66.0748L167.281 63.8819C168.239 63.1468 169.268 62.501 170.259 61.8018L176.248 57.7005C178.213 56.2957 180.307 55.08 182.358 53.7995L188.526 50.0042C190.613 48.794 192.748 47.6605 194.857 46.4857L198.025 44.7408C199.084 44.165 200.128 43.5599 201.219 43.0543C218.4 34.2883 236.483 27.4414 255.039 22.6811C273.591 17.9091 292.611 15.2175 311.631 14.6117C292.684 16.404 274 20.2666 256.036 26.108C238.068 31.9433 220.82 39.7461 204.687 49.2958C203.657 49.8559 202.68 50.5043 201.686 51.129L198.718 53.0153C196.747 54.2827 194.751 55.5032 192.808 56.8006L187.074 60.8461C185.174 62.2028 183.226 63.4999 181.417 64.9754L175.893 69.2828C174.981 70.0087 174.036 70.693 173.156 71.4606L170.506 73.7455L165.21 78.3043C164.309 79.0422 163.499 79.8818 162.641 80.6733L160.11 83.0786L157.58 85.4781L156.312 86.6777L155.681 87.2748L155.077 87.9018L150.256 92.9357L147.846 95.4498C147.435 95.8636 147.053 96.296 146.676 96.74L145.534 98.0545L140.966 103.301C139.409 105.018 138.016 106.874 136.568 108.687L132.265 114.136C130.884 115.992 129.564 117.892 128.211 119.768L126.192 122.587C125.515 123.525 124.839 124.457 124.228 125.443C113.967 140.806 105.418 157.225 98.7819 174.311L97.5063 177.499L96.3934 180.752L94.1629 187.241L93.6069 188.859L93.1295 190.51L92.1749 193.805L90.2663 200.384L88.6856 207.048L87.8955 210.374L87.5035 212.035C87.3728 212.588 87.293 213.156 87.1792 213.716L85.9392 220.437L85.3194 223.794C85.126 224.916 85.0066 226.047 84.8472 227.176C82.237 245.183 81.6376 263.405 83.0177 281.434C83.2739 285.944 83.7596 290.442 84.3499 294.912C84.9342 299.386 85.6513 303.839 86.4844 308.264C88.1562 317.113 90.309 325.849 92.9336 334.425L65.3273 341.86L65.3267 341.871Z" fill="url(#paint0_linear_410_859)"/>
<path d="M105.988 437.361L125.387 282.152L77.1233 330.739L10.9165 312.981L105.988 437.361Z" fill="#201CED"/>
</g>
<g filter="url(#filter2_d_410_859)">
<path d="M332.106 527.996C348.238 526.384 364.157 523.292 379.594 518.747C395.03 514.203 409.977 508.211 424.172 500.89C452.578 486.261 477.929 466.291 498.611 442.557C519.327 418.847 535.307 391.341 545.607 362.106C555.935 332.867 560.497 301.906 559.237 271.363L587.833 271.298C587.263 288.355 585.095 305.31 581.355 321.861C577.615 338.411 572.309 354.546 565.549 369.986C552.035 400.872 532.716 428.943 509.039 452.323C485.395 475.732 457.453 494.493 427.217 507.351C412.105 513.786 396.429 518.758 380.475 522.208C364.526 525.659 348.304 527.576 332.1 528.002L332.106 527.996Z" fill="url(#paint1_linear_410_859)"/>
<path d="M573.347 190.742L620.128 304.201L573.558 277.358L527.129 304.409L573.347 190.742Z" fill="url(#paint2_linear_410_859)"/>
</g>
</g>
<path d="M179.981 312.652V277.743H188.419V305.8H202.942V312.652H179.981ZM216.91 312.652V277.743H241.25V284.596H225.347V291.755H240.006V298.624H225.347V305.8H241.25V312.652H216.91ZM289.083 295.198C289.083 299.039 288.345 302.294 286.867 304.965C285.39 307.635 283.39 309.664 280.867 311.05C278.356 312.436 275.538 313.13 272.413 313.13C269.277 313.13 266.453 312.431 263.941 311.033C261.43 309.635 259.436 307.607 257.958 304.948C256.492 302.277 255.76 299.027 255.76 295.198C255.76 291.357 256.492 288.101 257.958 285.431C259.436 282.76 261.43 280.732 263.941 279.346C266.453 277.959 269.277 277.266 272.413 277.266C275.538 277.266 278.356 277.959 280.867 279.346C283.39 280.732 285.39 282.76 286.867 285.431C288.345 288.101 289.083 291.357 289.083 295.198ZM280.458 295.198C280.458 292.925 280.135 291.005 279.487 289.436C278.85 287.868 277.93 286.681 276.725 285.874C275.532 285.067 274.095 284.664 272.413 284.664C270.742 284.664 269.305 285.067 268.1 285.874C266.896 286.681 265.97 287.868 265.322 289.436C264.686 291.005 264.367 292.925 264.367 295.198C264.367 297.471 264.686 299.391 265.322 300.959C265.97 302.527 266.896 303.715 268.1 304.522C269.305 305.328 270.742 305.732 272.413 305.732C274.095 305.732 275.532 305.328 276.725 304.522C277.93 303.715 278.85 302.527 279.487 300.959C280.135 299.391 280.458 297.471 280.458 295.198ZM322.479 288.209C322.365 286.959 321.86 285.988 320.962 285.294C320.075 284.59 318.808 284.238 317.161 284.238C316.07 284.238 315.161 284.38 314.433 284.664C313.706 284.948 313.161 285.34 312.797 285.84C312.433 286.328 312.246 286.891 312.235 287.527C312.212 288.05 312.314 288.51 312.541 288.908C312.78 289.306 313.121 289.658 313.564 289.965C314.019 290.26 314.564 290.522 315.2 290.749C315.837 290.976 316.553 291.175 317.348 291.346L320.348 292.027C322.075 292.402 323.598 292.902 324.916 293.527C326.246 294.152 327.36 294.897 328.257 295.76C329.166 296.624 329.854 297.618 330.32 298.743C330.786 299.868 331.024 301.13 331.036 302.527C331.024 304.732 330.467 306.624 329.365 308.203C328.263 309.783 326.678 310.993 324.61 311.834C322.553 312.675 320.07 313.096 317.161 313.096C314.24 313.096 311.695 312.658 309.524 311.783C307.354 310.908 305.666 309.578 304.462 307.794C303.257 306.01 302.638 303.755 302.604 301.027H310.683C310.752 302.152 311.053 303.09 311.587 303.84C312.121 304.59 312.854 305.158 313.786 305.544C314.729 305.931 315.82 306.124 317.058 306.124C318.195 306.124 319.161 305.971 319.956 305.664C320.763 305.357 321.382 304.931 321.814 304.385C322.246 303.84 322.467 303.215 322.479 302.51C322.467 301.851 322.263 301.289 321.865 300.823C321.467 300.346 320.854 299.936 320.024 299.596C319.206 299.243 318.161 298.919 316.888 298.624L313.24 297.772C310.217 297.078 307.837 295.959 306.098 294.414C304.36 292.857 303.496 290.755 303.507 288.107C303.496 285.948 304.075 284.056 305.246 282.431C306.416 280.806 308.036 279.539 310.104 278.63C312.172 277.721 314.53 277.266 317.178 277.266C319.882 277.266 322.229 277.726 324.217 278.647C326.217 279.556 327.769 280.834 328.871 282.482C329.973 284.13 330.536 286.039 330.558 288.209H322.479ZM353.266 312.652L343.107 277.743H352.431L357.698 300.618H357.988L364.005 277.743H371.607L377.624 300.669H377.914L383.198 277.743H392.505L382.363 312.652H374.232L367.942 291.482H367.67L361.38 312.652H353.266ZM409.345 312.652H400.277L412.055 277.743H423.288L435.067 312.652H425.998L417.8 286.539H417.527L409.345 312.652ZM408.135 298.914H427.089V305.323H408.135V298.914ZM448.425 312.652V277.743H462.846C465.459 277.743 467.715 278.255 469.613 279.277C471.522 280.289 472.993 281.703 474.027 283.522C475.062 285.328 475.579 287.431 475.579 289.828C475.579 292.238 475.05 294.346 473.993 296.152C472.948 297.948 471.454 299.34 469.51 300.328C467.567 301.317 465.26 301.811 462.59 301.811H453.692V295.164H461.022C462.294 295.164 463.357 294.942 464.209 294.499C465.073 294.056 465.726 293.436 466.169 292.641C466.613 291.834 466.834 290.897 466.834 289.828C466.834 288.749 466.613 287.817 466.169 287.033C465.726 286.238 465.073 285.624 464.209 285.192C463.346 284.76 462.283 284.544 461.022 284.544H456.863V312.652H448.425Z" fill="#201CED"/>
<path d="M179.981 312.652H176.981V315.652H179.981V312.652ZM179.981 277.743V274.743H176.981V277.743H179.981ZM188.419 277.743H191.419V274.743H188.419V277.743ZM188.419 305.8H185.419V308.8H188.419V305.8ZM202.942 305.8H205.942V302.8H202.942V305.8ZM202.942 312.652V315.652H205.942V312.652H202.942ZM182.981 312.652V277.743H176.981V312.652H182.981ZM179.981 280.743H188.419V274.743H179.981V280.743ZM185.419 277.743V305.8H191.419V277.743H185.419ZM188.419 308.8H202.942V302.8H188.419V308.8ZM199.942 305.8V312.652H205.942V305.8H199.942ZM202.942 309.652H179.981V315.652H202.942V309.652ZM216.91 312.652H213.91V315.652H216.91V312.652ZM216.91 277.743V274.743H213.91V277.743H216.91ZM241.25 277.743H244.25V274.743H241.25V277.743ZM241.25 284.596V287.596H244.25V284.596H241.25ZM225.347 284.596V281.596H222.347V284.596H225.347ZM225.347 291.755H222.347V294.755H225.347V291.755ZM240.006 291.755H243.006V288.755H240.006V291.755ZM240.006 298.624V301.624H243.006V298.624H240.006ZM225.347 298.624V295.624H222.347V298.624H225.347ZM225.347 305.8H222.347V308.8H225.347V305.8ZM241.25 305.8H244.25V302.8H241.25V305.8ZM241.25 312.652V315.652H244.25V312.652H241.25ZM219.91 312.652V277.743H213.91V312.652H219.91ZM216.91 280.743H241.25V274.743H216.91V280.743ZM238.25 277.743V284.596H244.25V277.743H238.25ZM241.25 281.596H225.347V287.596H241.25V281.596ZM222.347 284.596V291.755H228.347V284.596H222.347ZM225.347 294.755H240.006V288.755H225.347V294.755ZM237.006 291.755V298.624H243.006V291.755H237.006ZM240.006 295.624H225.347V301.624H240.006V295.624ZM222.347 298.624V305.8H228.347V298.624H222.347ZM225.347 308.8H241.25V302.8H225.347V308.8ZM238.25 305.8V312.652H244.25V305.8H238.25ZM241.25 309.652H216.91V315.652H241.25V309.652ZM286.867 304.965L284.242 303.513L284.242 303.513L286.867 304.965ZM280.867 311.05L279.423 308.421L279.418 308.424L280.867 311.05ZM263.941 311.033L265.4 308.412L265.4 308.412L263.941 311.033ZM257.958 304.948L255.329 306.391L255.332 306.398L255.336 306.405L257.958 304.948ZM257.958 285.431L255.333 283.979L255.329 283.987L257.958 285.431ZM263.941 279.346L265.391 281.972L265.391 281.972L263.941 279.346ZM280.867 279.346L279.418 281.972L279.423 281.975L280.867 279.346ZM286.867 285.431L284.242 286.883L284.242 286.883L286.867 285.431ZM279.487 289.436L276.707 290.564L276.71 290.573L276.714 290.582L279.487 289.436ZM276.725 285.874L275.045 288.359L275.056 288.366L276.725 285.874ZM268.1 285.874L269.77 288.366L269.77 288.366L268.1 285.874ZM265.322 289.436L262.549 288.291L262.546 288.3L262.542 288.308L265.322 289.436ZM265.322 300.959L262.542 302.087L262.546 302.096L262.549 302.104L265.322 300.959ZM268.1 304.522L269.77 302.029L269.77 302.029L268.1 304.522ZM276.725 304.522L275.056 302.029L275.045 302.036L276.725 304.522ZM279.487 300.959L276.714 299.814L276.71 299.822L276.707 299.831L279.487 300.959ZM286.083 295.198C286.083 298.66 285.418 301.387 284.242 303.513L289.493 306.417C291.271 303.201 292.083 299.418 292.083 295.198H286.083ZM284.242 303.513C283.022 305.718 281.418 307.324 279.423 308.421L282.312 313.679C285.362 312.003 287.758 309.552 289.493 306.417L284.242 303.513ZM279.418 308.424C277.389 309.543 275.077 310.13 272.413 310.13V316.13C275.999 316.13 279.323 315.329 282.317 313.676L279.418 308.424ZM272.413 310.13C269.739 310.13 267.425 309.539 265.4 308.412L262.482 313.654C265.48 315.323 268.814 316.13 272.413 316.13V310.13ZM265.4 308.412C263.407 307.302 261.803 305.691 260.581 303.491L255.336 306.405C257.068 309.523 259.453 311.968 262.482 313.654L265.4 308.412ZM260.588 303.504C259.42 301.376 258.76 298.65 258.76 295.198H252.76C252.76 299.405 253.565 303.179 255.329 306.391L260.588 303.504ZM258.76 295.198C258.76 291.732 259.421 289.002 260.588 286.874L255.329 283.987C253.564 287.201 252.76 290.981 252.76 295.198H258.76ZM260.583 286.883C261.806 284.674 263.406 283.068 265.391 281.972L262.491 276.719C259.454 278.396 257.066 280.847 255.333 283.979L260.583 286.883ZM265.391 281.972C267.418 280.853 269.735 280.266 272.413 280.266V274.266C268.818 274.266 265.487 275.065 262.491 276.719L265.391 281.972ZM272.413 280.266C275.077 280.266 277.389 280.852 279.418 281.972L282.317 276.719C279.323 275.066 275.999 274.266 272.413 274.266V280.266ZM279.423 281.975C281.418 283.071 283.022 284.677 284.242 286.883L289.493 283.979C287.758 280.843 285.362 278.392 282.312 276.716L279.423 281.975ZM284.242 286.883C285.418 289.008 286.083 291.736 286.083 295.198H292.083C292.083 290.978 291.271 287.194 289.493 283.979L284.242 286.883ZM283.458 295.198C283.458 292.658 283.099 290.323 282.26 288.291L276.714 290.582C277.17 291.686 277.458 293.192 277.458 295.198H283.458ZM282.267 288.308C281.444 286.28 280.177 284.575 278.395 283.381L275.056 288.366C275.683 288.787 276.257 289.457 276.707 290.564L282.267 288.308ZM278.406 283.389C276.638 282.193 274.591 281.664 272.413 281.664V287.664C273.599 287.664 274.427 287.941 275.045 288.359L278.406 283.389ZM272.413 281.664C270.241 281.664 268.201 282.196 266.431 283.381L269.77 288.366C270.409 287.939 271.244 287.664 272.413 287.664V281.664ZM266.431 283.381C264.654 284.572 263.384 286.27 262.549 288.291L268.095 290.582C268.556 289.466 269.138 288.79 269.77 288.366L266.431 283.381ZM262.542 288.308C261.72 290.335 261.367 292.663 261.367 295.198H267.367C267.367 293.187 267.651 291.674 268.102 290.564L262.542 288.308ZM261.367 295.198C261.367 297.732 261.72 300.061 262.542 302.087L268.102 299.831C267.651 298.721 267.367 297.209 267.367 295.198H261.367ZM262.549 302.104C263.384 304.125 264.654 305.824 266.431 307.014L269.77 302.029C269.138 301.606 268.556 300.929 268.095 299.814L262.549 302.104ZM266.431 307.014C268.201 308.2 270.241 308.732 272.413 308.732V302.732C271.244 302.732 270.409 302.457 269.77 302.029L266.431 307.014ZM272.413 308.732C274.591 308.732 276.638 308.203 278.406 307.007L275.045 302.036C274.427 302.454 273.599 302.732 272.413 302.732V308.732ZM278.395 307.014C280.177 305.821 281.444 304.116 282.267 302.087L276.707 299.831C276.257 300.939 275.683 301.609 275.056 302.029L278.395 307.014ZM282.26 302.104C283.099 300.072 283.458 297.738 283.458 295.198H277.458C277.458 297.203 277.17 298.709 276.714 299.814L282.26 302.104ZM322.479 288.209L319.491 288.481L319.739 291.209H322.479V288.209ZM320.962 285.294L319.095 287.643L319.112 287.656L319.128 287.669L320.962 285.294ZM314.433 284.664L313.342 281.869L313.342 281.869L314.433 284.664ZM312.797 285.84L315.204 287.631L315.214 287.618L315.223 287.604L312.797 285.84ZM312.235 287.527L315.232 287.658L315.233 287.619L315.234 287.581L312.235 287.527ZM312.541 288.908L309.937 290.396L309.952 290.424L309.969 290.452L312.541 288.908ZM313.564 289.965L311.856 292.431L311.892 292.456L311.929 292.48L313.564 289.965ZM315.2 290.749L316.209 287.924L316.209 287.924L315.2 290.749ZM317.348 291.346L318.013 288.42L317.995 288.416L317.977 288.412L317.348 291.346ZM320.348 292.027L319.683 294.953L319.697 294.956L319.712 294.959L320.348 292.027ZM324.916 293.527L323.631 296.238L323.64 296.242L324.916 293.527ZM328.257 295.76L326.177 297.922L326.184 297.929L326.191 297.935L328.257 295.76ZM330.32 298.743L327.548 299.891L327.548 299.891L330.32 298.743ZM331.036 302.527L334.036 302.543L334.036 302.523L334.036 302.503L331.036 302.527ZM329.365 308.203L326.905 306.487L326.905 306.487L329.365 308.203ZM324.61 311.834L323.48 309.055L323.474 309.057L324.61 311.834ZM309.524 311.783L310.646 309.001L310.646 309.001L309.524 311.783ZM302.604 301.027V298.027H299.566L299.604 301.065L302.604 301.027ZM310.683 301.027L313.678 300.846L313.507 298.027H310.683V301.027ZM311.587 303.84L309.143 305.58L309.143 305.58L311.587 303.84ZM313.786 305.544L312.637 308.316L312.648 308.32L313.786 305.544ZM319.956 305.664L318.89 302.86L318.883 302.862L318.877 302.865L319.956 305.664ZM321.814 304.385L319.462 302.523L319.462 302.523L321.814 304.385ZM322.479 302.51L325.478 302.559L325.479 302.509L325.478 302.459L322.479 302.51ZM321.865 300.823L319.561 302.743L319.572 302.757L319.584 302.771L321.865 300.823ZM320.024 299.596L318.838 302.351L318.861 302.361L318.884 302.37L320.024 299.596ZM316.888 298.624L316.205 301.545L316.21 301.546L316.888 298.624ZM313.24 297.772L313.923 294.85L313.911 294.848L313.24 297.772ZM306.098 294.414L304.097 296.649L304.105 296.656L306.098 294.414ZM303.507 288.107L306.507 288.12L306.507 288.105L306.507 288.091L303.507 288.107ZM305.246 282.431L302.812 280.677L302.812 280.677L305.246 282.431ZM310.104 278.63L311.311 281.376L311.311 281.376L310.104 278.63ZM324.217 278.647L322.957 281.369L322.967 281.373L322.976 281.378L324.217 278.647ZM328.871 282.482L331.364 280.814L331.364 280.814L328.871 282.482ZM330.558 288.209V291.209H333.59L333.558 288.178L330.558 288.209ZM325.467 287.938C325.286 285.955 324.428 284.18 322.795 282.92L319.128 287.669C319.291 287.795 319.444 287.963 319.491 288.481L325.467 287.938ZM322.829 282.946C321.217 281.665 319.187 281.238 317.161 281.238V287.238C318.429 287.238 318.934 287.515 319.095 287.643L322.829 282.946ZM317.161 281.238C315.834 281.238 314.525 281.407 313.342 281.869L315.525 287.458C315.796 287.352 316.306 287.238 317.161 287.238V281.238ZM313.342 281.869C312.22 282.308 311.15 283.004 310.371 284.075L315.223 287.604C315.171 287.676 315.192 287.588 315.525 287.458L313.342 281.869ZM310.39 284.049C309.635 285.064 309.257 286.241 309.235 287.474L315.234 287.581C315.234 287.561 315.236 287.553 315.236 287.555C315.235 287.556 315.234 287.564 315.23 287.577C315.226 287.589 315.22 287.602 315.214 287.613C315.211 287.619 315.209 287.623 315.207 287.626C315.206 287.628 315.205 287.629 315.205 287.63C315.204 287.63 315.204 287.631 315.204 287.631L310.39 284.049ZM309.237 287.397C309.194 288.403 309.39 289.44 309.937 290.396L315.146 287.42C315.186 287.49 315.211 287.559 315.223 287.614C315.234 287.666 315.231 287.685 315.232 287.658L309.237 287.397ZM309.969 290.452C310.46 291.27 311.119 291.921 311.856 292.431L315.272 287.498C315.123 287.395 315.1 287.342 315.114 287.365L309.969 290.452ZM311.929 292.48C312.621 292.93 313.386 293.287 314.191 293.574L316.209 287.924C315.742 287.757 315.417 287.591 315.199 287.45L311.929 292.48ZM314.191 293.574C314.974 293.854 315.82 294.086 316.72 294.279L317.977 288.412C317.285 288.264 316.7 288.099 316.209 287.924L314.191 293.574ZM316.683 294.271L319.683 294.953L321.013 289.102L318.013 288.42L316.683 294.271ZM319.712 294.959C321.26 295.295 322.558 295.729 323.631 296.238L326.202 290.817C324.638 290.075 322.891 289.509 320.985 289.096L319.712 294.959ZM323.64 296.242C324.725 296.752 325.554 297.322 326.177 297.922L330.337 293.598C329.166 292.471 327.767 291.552 326.193 290.812L323.64 296.242ZM326.191 297.935C326.805 298.519 327.248 299.166 327.548 299.891L333.091 297.595C332.46 296.071 331.528 294.729 330.324 293.585L326.191 297.935ZM327.548 299.891C327.846 300.611 328.027 301.483 328.036 302.552L334.036 302.503C334.022 300.776 333.725 299.125 333.091 297.595L327.548 299.891ZM328.036 302.512C328.027 304.199 327.61 305.476 326.905 306.487L331.825 309.92C333.325 307.772 334.022 305.265 334.036 302.543L328.036 302.512ZM326.905 306.487C326.184 307.519 325.098 308.397 323.48 309.055L325.739 314.613C328.257 313.59 330.341 312.047 331.825 309.92L326.905 306.487ZM323.474 309.057C321.87 309.713 319.795 310.096 317.161 310.096V316.096C320.345 316.096 323.235 315.637 325.745 314.611L323.474 309.057ZM317.161 310.096C314.533 310.096 312.384 309.701 310.646 309.001L308.403 314.565C311.006 315.615 313.948 316.096 317.161 316.096V310.096ZM310.646 309.001C308.98 308.329 307.789 307.361 306.948 306.116L301.975 309.473C303.544 311.796 305.728 313.487 308.403 314.565L310.646 309.001ZM306.948 306.116C306.149 304.932 305.632 303.287 305.604 300.99L299.604 301.065C299.644 304.222 300.366 307.089 301.975 309.473L306.948 306.116ZM302.604 304.027H310.683V298.027H302.604V304.027ZM307.689 301.209C307.783 302.769 308.217 304.279 309.143 305.58L314.031 302.1C313.889 301.9 313.72 301.536 313.678 300.846L307.689 301.209ZM309.143 305.58C310.034 306.832 311.237 307.735 312.637 308.316L314.935 302.773C314.471 302.581 314.207 302.348 314.031 302.1L309.143 305.58ZM312.648 308.32C314.021 308.883 315.512 309.124 317.058 309.124V303.124C316.128 303.124 315.436 302.979 314.923 302.768L312.648 308.32ZM317.058 309.124C318.448 309.124 319.802 308.938 321.036 308.463L318.877 302.865C318.519 303.003 317.941 303.124 317.058 303.124V309.124ZM321.022 308.468C322.214 308.015 323.326 307.308 324.166 306.247L319.462 302.523C319.438 302.553 319.312 302.699 318.89 302.86L321.022 308.468ZM324.166 306.247C325.013 305.178 325.457 303.913 325.478 302.559L319.479 302.462C319.479 302.488 319.477 302.502 319.476 302.506C319.475 302.51 319.475 302.509 319.477 302.505C319.478 302.501 319.479 302.498 319.479 302.499C319.479 302.5 319.474 302.508 319.462 302.523L324.166 306.247ZM325.478 302.459C325.456 301.16 325.032 299.912 324.147 298.875L319.584 302.771C319.555 302.737 319.521 302.683 319.498 302.619C319.475 302.558 319.479 302.531 319.479 302.562L325.478 302.459ZM324.17 298.902C323.352 297.92 322.259 297.27 321.165 296.821L318.884 302.37C319.449 302.602 319.583 302.771 319.561 302.743L324.17 298.902ZM321.211 296.84C320.172 296.393 318.941 296.021 317.566 295.702L316.21 301.546C317.381 301.818 318.24 302.094 318.838 302.351L321.211 296.84ZM317.57 295.703L313.923 294.85L312.558 300.693L316.205 301.545L317.57 295.703ZM313.911 294.848C311.222 294.231 309.349 293.289 308.091 292.171L304.105 296.656C306.325 298.629 309.213 299.926 312.57 300.696L313.911 294.848ZM308.099 292.179C307.089 291.274 306.499 290.038 306.507 288.12L300.507 288.094C300.493 291.471 301.63 294.44 304.097 296.649L308.099 292.179ZM306.507 288.091C306.499 286.514 306.91 285.253 307.68 284.184L302.812 280.677C301.241 282.858 300.493 285.381 300.507 288.123L306.507 288.091ZM307.68 284.184C308.499 283.047 309.669 282.098 311.311 281.376L308.897 275.883C306.402 276.98 304.334 278.564 302.812 280.677L307.68 284.184ZM311.311 281.376C312.939 280.66 314.875 280.266 317.178 280.266V274.266C314.185 274.266 311.405 274.781 308.897 275.883L311.311 281.376ZM317.178 280.266C319.547 280.266 321.445 280.669 322.957 281.369L325.478 275.924C323.013 274.783 320.218 274.266 317.178 274.266V280.266ZM322.976 281.378C324.525 282.082 325.618 283.015 326.377 284.15L331.364 280.814C329.919 278.653 327.91 277.03 325.459 275.916L322.976 281.378ZM326.377 284.15C327.125 285.267 327.541 286.596 327.559 288.241L333.558 288.178C333.53 285.482 332.822 282.992 331.364 280.814L326.377 284.15ZM330.558 285.209H322.479V291.209H330.558V285.209ZM353.266 312.652L350.386 313.491L351.015 315.652H353.266V312.652ZM343.107 277.743V274.743H339.11L340.227 278.582L343.107 277.743ZM352.431 277.743L355.355 277.07L354.819 274.743H352.431V277.743ZM357.698 300.618L354.775 301.291L355.31 303.618H357.698V300.618ZM357.988 300.618V303.618H360.301L360.889 301.381L357.988 300.618ZM364.005 277.743V274.743H361.692L361.104 276.98L364.005 277.743ZM371.607 277.743L374.509 276.982L373.921 274.743H371.607V277.743ZM377.624 300.669L374.723 301.431L375.31 303.669H377.624V300.669ZM377.914 300.669V303.669H380.301L380.837 301.343L377.914 300.669ZM383.198 277.743V274.743H380.811L380.275 277.069L383.198 277.743ZM392.505 277.743L395.386 278.58L396.501 274.743H392.505V277.743ZM382.363 312.652V315.652H384.615L385.244 313.489L382.363 312.652ZM374.232 312.652L371.356 313.507L371.994 315.652H374.232V312.652ZM367.942 291.482L370.818 290.627L370.181 288.482H367.942V291.482ZM367.67 291.482V288.482H365.431L364.794 290.627L367.67 291.482ZM361.38 312.652V315.652H363.618L364.256 313.507L361.38 312.652ZM356.147 311.814L345.988 276.905L340.227 278.582L350.386 313.491L356.147 311.814ZM343.107 280.743H352.431V274.743H343.107V280.743ZM349.508 278.416L354.775 301.291L360.622 299.945L355.355 277.07L349.508 278.416ZM357.698 303.618H357.988V297.618H357.698V303.618ZM360.889 301.381L366.906 278.506L361.104 276.98L355.087 299.855L360.889 301.381ZM364.005 280.743H371.607V274.743H364.005V280.743ZM368.706 278.505L374.723 301.431L380.526 299.908L374.509 276.982L368.706 278.505ZM377.624 303.669H377.914V297.669H377.624V303.669ZM380.837 301.343L386.122 278.417L380.275 277.069L374.991 299.996L380.837 301.343ZM383.198 280.743H392.505V274.743H383.198V280.743ZM389.624 276.906L379.482 311.815L385.244 313.489L395.386 278.58L389.624 276.906ZM382.363 309.652H374.232V315.652H382.363V309.652ZM377.108 311.798L370.818 290.627L365.067 292.336L371.356 313.507L377.108 311.798ZM367.942 288.482H367.67V294.482H367.942V288.482ZM364.794 290.627L358.504 311.798L364.256 313.507L370.546 292.336L364.794 290.627ZM361.38 309.652H353.266V315.652H361.38V309.652ZM409.345 312.652V315.652H411.549L412.208 313.549L409.345 312.652ZM400.277 312.652L397.434 311.693L396.098 315.652H400.277V312.652ZM412.055 277.743V274.743H409.901L409.213 276.784L412.055 277.743ZM423.288 277.743L426.131 276.784L425.442 274.743H423.288V277.743ZM435.067 312.652V315.652H439.245L437.909 311.693L435.067 312.652ZM425.998 312.652L423.136 313.551L423.796 315.652H425.998V312.652ZM417.8 286.539L420.662 285.64L420.002 283.539H417.8V286.539ZM417.527 286.539V283.539H415.323L414.664 285.642L417.527 286.539ZM408.135 298.914V295.914H405.135V298.914H408.135ZM427.089 298.914H430.089V295.914H427.089V298.914ZM427.089 305.323V308.323H430.089V305.323H427.089ZM408.135 305.323H405.135V308.323H408.135V305.323ZM409.345 309.652H400.277V315.652H409.345V309.652ZM403.119 313.611L414.898 278.702L409.213 276.784L397.434 311.693L403.119 313.611ZM412.055 280.743H423.288V274.743H412.055V280.743ZM420.446 278.702L432.224 313.611L437.909 311.693L426.131 276.784L420.446 278.702ZM435.067 309.652H425.998V315.652H435.067V309.652ZM428.861 311.754L420.662 285.64L414.937 287.437L423.136 313.551L428.861 311.754ZM417.8 283.539H417.527V289.539H417.8V283.539ZM414.664 285.642L406.482 311.755L412.208 313.549L420.39 287.436L414.664 285.642ZM408.135 301.914H427.089V295.914H408.135V301.914ZM424.089 298.914V305.323H430.089V298.914H424.089ZM427.089 302.323H408.135V308.323H427.089V302.323ZM411.135 305.323V298.914H405.135V305.323H411.135ZM448.425 312.652H445.425V315.652H448.425V312.652ZM448.425 277.743V274.743H445.425V277.743H448.425ZM469.613 279.277L468.189 281.918L468.199 281.923L468.208 281.928L469.613 279.277ZM474.027 283.522L471.42 285.005L471.424 285.012L474.027 283.522ZM473.993 296.152L471.404 294.638L471.401 294.643L473.993 296.152ZM469.51 300.328L470.871 303.002L470.871 303.002L469.51 300.328ZM453.692 301.811H450.692V304.811H453.692V301.811ZM453.692 295.164V292.164H450.692V295.164H453.692ZM464.209 294.499L462.84 291.83L462.832 291.834L462.825 291.837L464.209 294.499ZM466.169 292.641L468.79 294.101L468.795 294.093L468.799 294.085L466.169 292.641ZM466.169 287.033L463.549 288.493L463.553 288.501L463.558 288.509L466.169 287.033ZM464.209 285.192L462.868 287.875L462.868 287.875L464.209 285.192ZM456.863 284.544V281.544H453.863V284.544H456.863ZM456.863 312.652V315.652H459.863V312.652H456.863ZM451.425 312.652V277.743H445.425V312.652H451.425ZM448.425 280.743H462.846V274.743H448.425V280.743ZM462.846 280.743C465.067 280.743 466.813 281.176 468.189 281.918L471.036 276.636C468.617 275.333 465.851 274.743 462.846 274.743V280.743ZM468.208 281.928C469.631 282.682 470.677 283.699 471.42 285.005L476.635 282.039C475.31 279.708 473.413 277.895 471.017 276.626L468.208 281.928ZM471.424 285.012C472.161 286.3 472.579 287.873 472.579 289.828H478.579C478.579 286.988 477.962 284.357 476.631 282.031L471.424 285.012ZM472.579 289.828C472.579 291.787 472.153 293.356 471.404 294.638L476.583 297.667C477.947 295.335 478.579 292.688 478.579 289.828H472.579ZM471.401 294.643C470.66 295.914 469.606 296.914 468.15 297.655L470.871 303.002C473.301 301.766 475.235 299.981 476.586 297.662L471.401 294.643ZM468.15 297.655C466.713 298.386 464.892 298.811 462.59 298.811V304.811C465.629 304.811 468.422 304.248 470.871 303.002L468.15 297.655ZM462.59 298.811H453.692V304.811H462.59V298.811ZM456.692 301.811V295.164H450.692V301.811H456.692ZM453.692 298.164H461.022V292.164H453.692V298.164ZM461.022 298.164C462.626 298.164 464.198 297.886 465.593 297.161L462.825 291.837C462.516 291.998 461.963 292.164 461.022 292.164V298.164ZM465.579 297.168C466.933 296.473 468.039 295.449 468.79 294.101L463.549 291.181C463.413 291.424 463.213 291.638 462.84 291.83L465.579 297.168ZM468.799 294.085C469.522 292.77 469.834 291.32 469.834 289.828H463.834C463.834 290.473 463.704 290.899 463.54 291.197L468.799 294.085ZM469.834 289.828C469.834 288.334 469.525 286.873 468.781 285.557L463.558 288.509C463.7 288.761 463.834 289.164 463.834 289.828H469.834ZM468.79 285.573C468.035 284.218 466.92 283.193 465.551 282.509L462.868 287.875C463.226 288.055 463.417 288.257 463.549 288.493L468.79 285.573ZM465.551 282.509C464.163 281.815 462.611 281.544 461.022 281.544V287.544C461.955 287.544 462.528 287.706 462.868 287.875L465.551 282.509ZM461.022 281.544H456.863V287.544H461.022V281.544ZM453.863 284.544V312.652H459.863V284.544H453.863ZM456.863 309.652H448.425V315.652H456.863V309.652Z" fill="#C3ED1C"/>
<defs>
<filter id="filter0_d_410_859" x="-9" y="-7.99951" width="644.787" height="554.119" filterUnits="userSpaceOnUse" color-interpolation-filters="sRGB">
<feFlood flood-opacity="0" result="BackgroundImageFix"/>
<feColorMatrix in="SourceAlpha" type="matrix" values="0 0 0 0 0 0 0 0 0 0 0 0 0 0 0 0 0 0 127 0" result="hardAlpha"/>
<feOffset dx="-4" dy="-2"/>
<feGaussianBlur stdDeviation="3"/>
<feColorMatrix type="matrix" values="0 0 0 0 0.656441 0 0 0 0 0.810424 0 0 0 0 0.0405097 0 0 0 1 0"/>
<feBlend mode="normal" in2="BackgroundImageFix" result="effect1_dropShadow_410_859"/>
<feBlend mode="normal" in="SourceGraphic" in2="effect1_dropShadow_410_859" result="shape"/>
</filter>
<filter id="filter1_d_410_859" x="8.9165" y="12.6118" width="308.714" height="430.75" filterUnits="userSpaceOnUse" color-interpolation-filters="sRGB">
<feFlood flood-opacity="0" result="BackgroundImageFix"/>
<feColorMatrix in="SourceAlpha" type="matrix" values="0 0 0 0 0 0 0 0 0 0 0 0 0 0 0 0 0 0 127 0" result="hardAlpha"/>
<feOffset dx="2" dy="2"/>
<feGaussianBlur stdDeviation="2"/>
<feComposite in2="hardAlpha" operator="out"/>
<feColorMatrix type="matrix" values="0 0 0 0 0.294118 0 0 0 0 0.301961 0 0 0 0 0.329412 0 0 0 1 0"/>
<feBlend mode="normal" in2="BackgroundImageFix" result="effect1_dropShadow_410_859"/>
<feBlend mode="normal" in="SourceGraphic" in2="effect1_dropShadow_410_859" result="shape"/>
</filter>
<filter id="filter2_d_410_859" x="327.1" y="185.742" width="296.028" height="345.26" filterUnits="userSpaceOnUse" color-interpolation-filters="sRGB">
<feFlood flood-opacity="0" result="BackgroundImageFix"/>
<feColorMatrix in="SourceAlpha" type="matrix" values="0 0 0 0 0 0 0 0 0 0 0 0 0 0 0 0 0 0 127 0" result="hardAlpha"/>
<feOffset dx="-1" dy="-1"/>
<feGaussianBlur stdDeviation="2"/>
<feComposite in2="hardAlpha" operator="out"/>
<feColorMatrix type="matrix" values="0 0 0 0 1 0 0 0 0 1 0 0 0 0 1 0 0 0 0.38 0"/>
<feBlend mode="normal" in2="BackgroundImageFix" result="effect1_dropShadow_410_859"/>
<feBlend mode="normal" in="SourceGraphic" in2="effect1_dropShadow_410_859" result="shape"/>
</filter>
<linearGradient id="paint0_linear_410_859" x1="74.4675" y1="320.545" x2="275.735" y2="-44.4319" gradientUnits="userSpaceOnUse">
<stop stop-color="#201CED"/>
<stop offset="1" stop-color="#C3ED1C"/>
</linearGradient>
<linearGradient id="paint1_linear_410_859" x1="435.64" y1="485.899" x2="496.906" y2="332.117" gradientUnits="userSpaceOnUse">
<stop stop-color="#C3ED1C"/>
<stop offset="1" stop-color="#201CED"/>
</linearGradient>
<linearGradient id="paint2_linear_410_859" x1="566.868" y1="286.048" x2="595.315" y2="221.783" gradientUnits="userSpaceOnUse">
<stop stop-color="#201CED"/>
<stop offset="1" stop-color="#201CED"/>
</linearGradient>
</defs>
</svg>
