<svg width="369" height="164" viewBox="0 0 369 164" fill="none" xmlns="http://www.w3.org/2000/svg">
<g opacity="0.2" filter="url(#filter0_d_410_888)">
<path d="M108.194 159.239C77.7874 161.116 50.4789 144.711 37.0378 119.518" stroke="#C3ED1C" stroke-miterlimit="10"/>
<path d="M107.822 159.263C75.5461 161.256 47.291 129.3 44.7144 87.8885C42.1377 46.4772 66.2163 11.2926 98.4927 9.30007" stroke="#C3ED1C" stroke-miterlimit="10"/>
<path d="M107.451 159.286C84.3962 160.709 63.6182 128.294 61.0416 86.8826C58.4649 45.4713 75.0663 10.748 98.1214 9.32354" stroke="#C3ED1C" stroke-miterlimit="10"/>
<path d="M107.08 159.31C93.2461 160.165 79.9437 127.286 77.3688 85.8753C74.7921 44.464 83.918 10.2019 97.7517 9.34731" stroke="#C3ED1C" stroke-miterlimit="10"/>
<path d="M106.71 159.333C102.099 159.618 96.2723 126.278 93.6956 84.867C91.1189 43.4557 92.7693 9.65494 97.38 9.37004" stroke="#C3ED1C" stroke-miterlimit="10"/>
<path d="M106.339 159.355C110.949 159.07 112.6 125.269 110.023 83.8581C107.446 42.4468 101.621 9.10733 97.0089 9.39215" stroke="#C3ED1C" stroke-miterlimit="10"/>
<path d="M105.967 159.378C119.801 158.523 128.925 124.261 126.35 82.8497C123.774 41.4384 110.471 8.56012 96.6393 9.41483" stroke="#C3ED1C" stroke-miterlimit="10"/>
<path d="M105.596 159.401C128.651 157.979 145.253 123.254 142.676 81.8423C140.099 40.431 119.321 8.0141 96.2663 9.43853" stroke="#C3ED1C" stroke-miterlimit="10"/>
<path d="M105.225 159.424C137.503 157.432 161.58 122.245 159.003 80.8339C156.426 39.4226 128.173 7.46695 95.8948 9.45944" stroke="#C3ED1C" stroke-miterlimit="10"/>
<path d="M166.264 46.8857C160.873 37.4236 137.024 6.9229 95.5249 9.4852" stroke="#C3ED1C" stroke-miterlimit="10"/>
<path d="M147.978 142.529C144.526 143.102 141.067 143.628 137.601 144.108C134.411 144.55 131.22 144.953 128.021 145.316C125.002 145.661 121.977 145.969 118.948 146.243C116.015 146.508 113.077 146.741 110.139 146.94C107.224 147.139 104.308 147.305 101.392 147.438C98.4299 147.577 95.4683 147.678 92.5032 147.749C89.4241 147.821 86.3418 147.858 83.2612 147.858C79.9795 147.862 76.6983 147.823 73.4175 147.742C69.8252 147.658 66.2373 147.521 62.6534 147.335" stroke="#C3ED1C" stroke-miterlimit="10"/>
<path d="M165.388 122.058C160.672 122.872 155.943 123.623 151.203 124.309C146.66 124.966 142.107 125.567 137.549 126.107C133.124 126.632 128.693 127.101 124.257 127.517C119.896 127.924 115.53 128.282 111.16 128.585C106.808 128.886 102.455 129.136 98.1035 129.333C93.7131 129.534 89.3221 129.681 84.9303 129.774C80.4479 129.872 75.9666 129.914 71.4862 129.903C66.8568 129.893 62.2319 129.824 57.6117 129.696C52.7806 129.564 47.9542 129.37 43.1344 129.113" stroke="#C3ED1C" stroke-miterlimit="10"/>
<path d="M172.939 103.892C167.718 104.619 162.49 105.296 157.256 105.926C152.097 106.545 146.934 107.12 141.766 107.648C136.652 108.168 131.536 108.645 126.414 109.077C121.324 109.507 116.231 109.893 111.131 110.234C106.044 110.575 100.953 110.874 95.8618 111.127C90.7534 111.384 85.6421 111.597 80.5329 111.767C75.3834 111.939 70.2345 112.067 65.0876 112.155C59.8787 112.243 54.672 112.286 49.4657 112.287C44.8291 112.286 40.194 112.254 35.5607 112.187C34.9129 112.176 34.2652 112.166 33.6157 112.157" stroke="#C3ED1C" stroke-miterlimit="10"/>
<path d="M175.44 86.924C170.021 87.4076 164.602 87.8712 159.181 88.3196C153.768 88.7651 148.353 89.1937 142.939 89.6057C137.529 90.0179 132.119 90.4117 126.706 90.7904C121.297 91.1675 115.887 91.5279 110.474 91.8714C105.065 92.2184 99.653 92.5469 94.2405 92.8554C88.8277 93.1688 83.4108 93.4637 77.9963 93.7436C72.5768 94.0233 67.1564 94.2878 61.7351 94.5357C56.3072 94.7832 50.8799 95.0173 45.4519 95.233C41.7995 95.3802 38.1475 95.5207 34.4977 95.6512C32.7138 95.7161 30.9267 95.7791 29.1413 95.8405" stroke="#C3ED1C" stroke-miterlimit="10"/>
<path d="M174.156 70.4476C168.736 70.6336 163.317 70.8398 157.897 71.0609C152.489 71.2843 147.082 71.5245 141.673 71.7813C136.275 72.037 130.876 72.311 125.478 72.6017C120.083 72.891 114.692 73.1972 109.299 73.5199C103.908 73.8411 98.5203 74.1809 93.1322 74.5374C87.7408 74.8903 82.3536 75.2618 76.9656 75.6484C71.5727 76.0347 66.1805 76.4377 60.7892 76.8576C55.3896 77.277 49.9925 77.7115 44.5963 78.1612C40.8924 78.4696 37.1897 78.7864 33.4867 79.1099C31.7857 79.2591 30.0847 79.4082 28.3835 79.5624" stroke="#C3ED1C" stroke-miterlimit="10"/>
<path d="M31.377 62.7254C31.7584 62.6692 32.1428 62.6181 32.5258 62.5637C37.3195 61.9001 42.1233 61.2705 46.9335 60.6796C52.0404 60.0501 57.1536 59.4626 62.2731 58.9189C67.3286 58.3787 72.3904 57.8823 77.4551 57.4278C82.4813 56.9747 87.5102 56.5653 92.5455 56.1962C97.5607 55.8295 102.584 55.5034 107.607 55.219C112.639 54.9334 117.673 54.6913 122.709 54.4928C127.779 54.2926 132.851 54.136 137.924 54.0213C143.055 53.9077 148.189 53.8395 153.321 53.8163C158.537 53.7922 165.049 53.8813 170.265 53.9542C170.265 53.9542 167.76 49.1256 166.112 46.5395" stroke="#C3ED1C" stroke-miterlimit="10"/>
<path d="M158.893 36.8231C154.235 36.6175 148.997 36.3764 144.334 36.2943C139.876 36.214 135.413 36.1887 130.954 36.2204C126.63 36.2539 122.309 36.336 117.989 36.4699C113.745 36.6009 109.503 36.7838 105.262 37.0136C101.042 37.2445 96.8256 37.5223 92.6131 37.8521C88.3636 38.1818 84.1202 38.5602 79.8825 38.9891C75.5541 39.4251 71.2332 39.9133 66.9197 40.4521C62.4547 41.0067 57.9969 41.6185 53.5499 42.2826C48.892 42.9763 44.2428 43.7324 39.6109 44.5427" stroke="#C3ED1C" stroke-miterlimit="10"/>
<path d="M136.198 18.4892C133.025 18.3912 129.852 18.3299 126.677 18.312C123.765 18.2904 120.855 18.3041 117.943 18.3494C115.199 18.3914 112.455 18.4636 109.711 18.5624C107.055 18.6589 104.4 18.784 101.748 18.9325C99.1152 19.0821 96.4851 19.2551 93.8551 19.4583C91.1866 19.6612 88.5167 19.8924 85.8505 20.1506C83.0766 20.4168 80.3062 20.7149 77.5377 21.0415C74.5806 21.3888 71.6268 21.7714 68.6813 22.1878C65.4408 22.6413 62.2099 23.1371 58.9837 23.6749" stroke="#C3ED1C" stroke-miterlimit="10"/>
<g filter="url(#filter1_d_410_888)">
<path d="M26.8165 105.001C26.1364 102.148 25.6152 99.2632 25.2556 96.3636C25.0749 94.9138 24.9347 93.461 24.8363 92.0069C24.738 90.5528 24.6732 89.097 24.6788 87.6414C24.6004 81.8223 25.1616 76.0101 26.352 70.3462C26.4249 69.9921 26.4862 69.6358 26.5708 69.284L26.8344 68.2307L27.3614 66.1275C27.4069 65.9526 27.4458 65.7774 27.4964 65.6027L27.6529 65.084L27.9676 64.0483L28.6001 61.9788L29.3298 59.9425L29.6954 58.9261L29.8782 58.4187L30.0857 57.9192L30.9138 55.9246L31.3286 54.929L31.7893 53.9541C34.2037 48.7357 37.1835 43.803 40.6479 39.2621C40.855 38.9715 41.0815 38.6953 41.308 38.4191L41.9843 37.5887C42.4372 37.0379 42.8789 36.4783 43.3415 35.9347L44.7694 34.3428C45.248 33.815 45.7104 33.2748 46.221 32.7771L47.7206 31.2572L48.0947 30.8781C48.2183 30.7505 48.3435 30.6247 48.4767 30.506L49.2616 29.7829L50.8294 28.34L51.026 28.1593L51.2305 27.989L51.6395 27.6467L52.4558 26.9636L53.2721 26.2822C53.5462 26.0585 53.8094 25.8193 54.0979 25.6113L55.7935 24.3269L56.6396 23.6855C56.92 23.4705 57.2209 23.2815 57.5108 23.077L59.2625 21.8773C59.8374 21.4664 60.4498 21.1108 61.0498 20.7362L62.8539 19.626C63.4646 19.2721 64.0892 18.9405 64.706 18.5968L65.6326 18.0864C65.9425 17.918 66.2479 17.741 66.5668 17.5931C71.5927 15.0289 76.882 13.0261 82.3101 11.6337C87.7367 10.2378 93.3004 9.45047 98.8639 9.27326C93.3216 9.79753 87.8564 10.9274 82.6018 12.6361C77.3457 14.343 72.3004 16.6254 67.5813 19.4188C67.28 19.5827 66.9942 19.7723 66.7036 19.9551L65.8352 20.5068C65.2589 20.8776 64.6749 21.2346 64.1066 21.6141L62.4294 22.7975C61.8736 23.1943 61.3036 23.5737 60.7745 24.0053L59.1589 25.2653C58.892 25.4777 58.6157 25.6778 58.3582 25.9023L57.5828 26.5707L56.0339 27.9042C55.7702 28.1201 55.5334 28.3657 55.2824 28.5972L54.5421 29.3008L53.8018 30.0027L53.4309 30.3536L53.2463 30.5282L53.0696 30.7116L51.6595 32.1841L50.9544 32.9195C50.8345 33.0406 50.7227 33.167 50.6123 33.2969L50.2782 33.6814L48.942 35.2161C48.4865 35.7182 48.0792 36.2612 47.6557 36.7917L46.397 38.3854C45.993 38.9285 45.6068 39.4843 45.2109 40.0329L44.6204 40.8575C44.4224 41.1318 44.2246 41.4044 44.046 41.6931C41.0446 46.1868 38.5437 50.9897 36.6027 55.9877L36.2295 56.9201L35.904 57.8717L35.2515 59.7698L35.0889 60.243L34.9492 60.7258L34.67 61.6897L34.1117 63.6142L33.6493 65.5635L33.4182 66.5365L33.3036 67.0222C33.2653 67.1841 33.242 67.3501 33.2087 67.5139L32.846 69.4799L32.6647 70.4621C32.6081 70.7902 32.5732 71.1211 32.5266 71.4514C31.763 76.7187 31.5877 82.0487 31.9914 87.3224C32.0663 88.6416 32.2084 89.9575 32.3811 91.2649C32.552 92.5738 32.7618 93.8763 33.0055 95.1705C33.4945 97.759 34.1242 100.314 34.8919 102.823L26.8167 104.998L26.8165 105.001Z" fill="url(#paint0_linear_410_888)"/>
<path d="M38.7108 132.934L44.3853 87.533L30.2673 101.745L10.9009 96.5508L38.7108 132.934Z" fill="#201CED"/>
</g>
<g filter="url(#filter2_d_410_888)">
<path d="M104.853 159.446C109.572 158.975 114.229 158.07 118.744 156.741C123.259 155.412 127.632 153.659 131.784 151.518C140.093 147.238 147.509 141.397 153.558 134.454C159.618 127.519 164.292 119.473 167.305 110.921C170.327 102.368 171.661 93.3119 171.292 84.3777L179.657 84.3586C179.49 89.3481 178.856 94.3076 177.762 99.1489C176.668 103.99 175.116 108.71 173.139 113.226C169.185 122.261 163.535 130.472 156.609 137.311C149.693 144.158 141.519 149.646 132.675 153.407C128.254 155.29 123.669 156.744 119.002 157.753C114.337 158.763 109.592 159.323 104.852 159.448L104.853 159.446Z" fill="url(#paint1_linear_410_888)"/>
<path d="M175.42 60.7945L189.104 93.9826L175.481 86.1308L161.9 94.0435L175.42 60.7945Z" fill="url(#paint2_linear_410_888)"/>
</g>
</g>
<g filter="url(#filter3_f_410_888)">
<path d="M64.982 89V62.8182H71.3101V83.8608H82.2022V89H64.982ZM92.6781 89V62.8182H110.934V67.9574H99.0062V73.3267H110.001V78.4787H99.0062V83.8608H110.934V89H92.6781ZM146.809 75.9091C146.809 78.7898 146.255 81.2315 145.147 83.2344C144.039 85.2372 142.539 86.7585 140.647 87.7983C138.763 88.8381 136.649 89.358 134.306 89.358C131.953 89.358 129.836 88.8338 127.952 87.7855C126.068 86.7372 124.573 85.2159 123.465 83.2216C122.365 81.2187 121.816 78.7812 121.816 75.9091C121.816 73.0284 122.365 70.5866 123.465 68.5838C124.573 66.581 126.068 65.0597 127.952 64.0199C129.836 62.9801 131.953 62.4602 134.306 62.4602C136.649 62.4602 138.763 62.9801 140.647 64.0199C142.539 65.0597 144.039 66.581 145.147 68.5838C146.255 70.5866 146.809 73.0284 146.809 75.9091ZM140.34 75.9091C140.34 74.2045 140.097 72.7642 139.611 71.5881C139.134 70.4119 138.443 69.5213 137.54 68.9162C136.645 68.3111 135.567 68.0085 134.306 68.0085C133.053 68.0085 131.975 68.3111 131.071 68.9162C130.168 69.5213 129.473 70.4119 128.987 71.5881C128.51 72.7642 128.272 74.2045 128.272 75.9091C128.272 77.6136 128.51 79.054 128.987 80.2301C129.473 81.4062 130.168 82.2969 131.071 82.902C131.975 83.5071 133.053 83.8097 134.306 83.8097C135.567 83.8097 136.645 83.5071 137.54 82.902C138.443 82.2969 139.134 81.4062 139.611 80.2301C140.097 79.054 140.34 77.6136 140.34 75.9091Z" fill="#201CED"/>
<path d="M64.982 89H63.982V90H64.982V89ZM64.982 62.8182V61.8182H63.982V62.8182H64.982ZM71.3101 62.8182H72.3101V61.8182H71.3101V62.8182ZM71.3101 83.8608H70.3101V84.8608H71.3101V83.8608ZM82.2022 83.8608H83.2022V82.8608H82.2022V83.8608ZM82.2022 89V90H83.2022V89H82.2022ZM65.982 89V62.8182H63.982V89H65.982ZM64.982 63.8182H71.3101V61.8182H64.982V63.8182ZM70.3101 62.8182V83.8608H72.3101V62.8182H70.3101ZM71.3101 84.8608H82.2022V82.8608H71.3101V84.8608ZM81.2022 83.8608V89H83.2022V83.8608H81.2022ZM82.2022 88H64.982V90H82.2022V88ZM92.6781 89H91.6781V90H92.6781V89ZM92.6781 62.8182V61.8182H91.6781V62.8182H92.6781ZM110.934 62.8182H111.934V61.8182H110.934V62.8182ZM110.934 67.9574V68.9574H111.934V67.9574H110.934ZM99.0062 67.9574V66.9574H98.0062V67.9574H99.0062ZM99.0062 73.3267H98.0062V74.3267H99.0062V73.3267ZM110.001 73.3267H111.001V72.3267H110.001V73.3267ZM110.001 78.4787V79.4787H111.001V78.4787H110.001ZM99.0062 78.4787V77.4787H98.0062V78.4787H99.0062ZM99.0062 83.8608H98.0062V84.8608H99.0062V83.8608ZM110.934 83.8608H111.934V82.8608H110.934V83.8608ZM110.934 89V90H111.934V89H110.934ZM93.6781 89V62.8182H91.6781V89H93.6781ZM92.6781 63.8182H110.934V61.8182H92.6781V63.8182ZM109.934 62.8182V67.9574H111.934V62.8182H109.934ZM110.934 66.9574H99.0062V68.9574H110.934V66.9574ZM98.0062 67.9574V73.3267H100.006V67.9574H98.0062ZM99.0062 74.3267H110.001V72.3267H99.0062V74.3267ZM109.001 73.3267V78.4787H111.001V73.3267H109.001ZM110.001 77.4787H99.0062V79.4787H110.001V77.4787ZM98.0062 78.4787V83.8608H100.006V78.4787H98.0062ZM99.0062 84.8608H110.934V82.8608H99.0062V84.8608ZM109.934 83.8608V89H111.934V83.8608H109.934ZM110.934 88H92.6781V90H110.934V88ZM145.147 83.2344L144.272 82.7503L144.272 82.7503L145.147 83.2344ZM140.647 87.7983L140.165 86.9219L140.163 86.9228L140.647 87.7983ZM127.952 87.7855L128.438 86.9117L128.438 86.9117L127.952 87.7855ZM123.465 83.2216L122.588 83.7028L122.591 83.7072L123.465 83.2216ZM123.465 68.5838L122.59 68.0997L122.588 68.1026L123.465 68.5838ZM127.952 64.0199L128.435 64.8953L128.435 64.8953L127.952 64.0199ZM140.647 64.0199L140.163 64.8953L140.165 64.8963L140.647 64.0199ZM145.147 68.5838L144.272 69.0679L144.272 69.0679L145.147 68.5838ZM139.611 71.5881L138.684 71.9641L138.687 71.9698L139.611 71.5881ZM137.54 68.9162L136.98 69.7446L136.984 69.747L137.54 68.9162ZM131.071 68.9162L131.628 69.747L131.628 69.747L131.071 68.9162ZM128.987 71.5881L128.063 71.2063L128.061 71.2121L128.987 71.5881ZM128.987 80.2301L128.061 80.6061L128.063 80.6119L128.987 80.2301ZM131.071 82.902L131.628 82.0711L131.628 82.0711L131.071 82.902ZM137.54 82.902L136.984 82.0711L136.98 82.0736L137.54 82.902ZM139.611 80.2301L138.687 79.8483L138.684 79.8541L139.611 80.2301ZM145.809 75.9091C145.809 78.6634 145.279 80.9292 144.272 82.7503L146.022 83.7184C147.23 81.5339 147.809 78.9161 147.809 75.9091H145.809ZM144.272 82.7503C143.249 84.5983 141.881 85.9787 140.165 86.9219L141.128 88.6747C143.196 87.5384 144.828 85.8762 146.022 83.7184L144.272 82.7503ZM140.163 86.9228C138.441 87.8737 136.496 88.358 134.306 88.358V90.358C136.803 90.358 139.085 89.8024 141.13 88.6738L140.163 86.9228ZM134.306 88.358C132.108 88.358 130.16 87.8698 128.438 86.9117L127.466 88.6593C129.511 89.7978 131.799 90.358 134.306 90.358V88.358ZM128.438 86.9117C126.727 85.9595 125.362 84.5772 124.339 82.7359L122.591 83.7072C123.784 85.8546 125.41 87.5149 127.466 88.6593L128.438 86.9117ZM124.341 82.7404C123.341 80.9182 122.816 78.6555 122.816 75.9091H120.816C120.816 78.907 121.39 81.5193 122.588 83.7028L124.341 82.7404ZM122.816 75.9091C122.816 73.1536 123.341 70.8868 124.341 69.065L122.588 68.1026C121.389 70.2865 120.816 72.9032 120.816 75.9091H122.816ZM124.34 69.0679C125.363 67.2188 126.727 65.8382 128.435 64.8953L127.469 63.1444C125.41 64.2811 123.783 65.9432 122.59 68.0997L124.34 69.0679ZM128.435 64.8953C130.157 63.9447 132.106 63.4602 134.306 63.4602V61.4602C131.801 61.4602 129.514 62.0155 127.469 63.1444L128.435 64.8953ZM134.306 63.4602C136.496 63.4602 138.441 63.9444 140.163 64.8953L141.13 63.1444C139.085 62.0158 136.803 61.4602 134.306 61.4602V63.4602ZM140.165 64.8963C141.881 65.8395 143.249 67.2199 144.272 69.0679L146.022 68.0997C144.828 65.942 143.196 64.2798 141.128 63.1435L140.165 64.8963ZM144.272 69.0679C145.279 70.889 145.809 73.1547 145.809 75.9091H147.809C147.809 72.9021 147.23 70.2843 146.022 68.0997L144.272 69.0679ZM141.34 75.9091C141.34 74.1155 141.085 72.537 140.535 71.2063L138.687 71.9698C139.109 72.9914 139.34 74.2936 139.34 75.9091H141.34ZM140.538 71.2121C139.998 69.8825 139.192 68.8193 138.097 68.0853L136.984 69.747C137.695 70.2233 138.269 70.9414 138.684 71.9641L140.538 71.2121ZM138.1 68.0878C137.014 67.3531 135.732 67.0085 134.306 67.0085V69.0085C135.402 69.0085 136.277 69.2691 136.98 69.7446L138.1 68.0878ZM134.306 67.0085C132.886 67.0085 131.607 67.3539 130.515 68.0853L131.628 69.747C132.343 69.2683 133.22 69.0085 134.306 69.0085V67.0085ZM130.515 68.0853C129.421 68.8182 128.611 69.8792 128.063 71.2063L129.912 71.9698C130.335 70.9446 130.915 70.2244 131.628 69.747L130.515 68.0853ZM128.061 71.2121C127.522 72.5409 127.272 74.1173 127.272 75.9091H129.272C129.272 74.2918 129.499 72.9875 129.914 71.9641L128.061 71.2121ZM127.272 75.9091C127.272 77.7009 127.522 79.2772 128.061 80.6061L129.914 79.8541C129.499 78.8307 129.272 77.5264 129.272 75.9091H127.272ZM128.063 80.6119C128.611 81.9389 129.421 83 130.515 83.7328L131.628 82.0711C130.915 81.5938 130.335 80.8736 129.912 79.8484L128.063 80.6119ZM130.515 83.7328C131.607 84.4643 132.886 84.8097 134.306 84.8097V82.8097C133.22 82.8097 132.343 82.5499 131.628 82.0711L130.515 83.7328ZM134.306 84.8097C135.732 84.8097 137.014 84.4651 138.1 83.7304L136.98 82.0736C136.277 82.5491 135.402 82.8097 134.306 82.8097V84.8097ZM138.097 83.7328C139.192 82.9988 139.998 81.9357 140.538 80.6061L138.684 79.8541C138.269 80.8768 137.695 81.5949 136.984 82.0711L138.097 83.7328ZM140.535 80.6119C141.085 79.2811 141.34 77.7027 141.34 75.9091H139.34C139.34 77.5246 139.109 78.8268 138.687 79.8484L140.535 80.6119ZM171.855 70.6676L170.859 70.7581L170.942 71.6676H171.855V70.6676ZM170.717 68.4815L170.095 69.2644L170.106 69.273L170.717 68.4815ZM165.821 68.0085L165.457 67.0771L165.457 67.0771L165.821 68.0085ZM164.594 68.8906L165.396 69.4877L165.402 69.4788L164.594 68.8906ZM164.172 70.1562L165.171 70.1997L165.171 70.1869L165.172 70.1741L164.172 70.1562ZM164.402 71.1918L163.534 71.6879L163.539 71.6971L163.544 71.7063L164.402 71.1918ZM165.169 71.9844L164.6 72.8066L164.612 72.8149L164.624 72.8228L165.169 71.9844ZM166.396 72.5724L166.733 71.6307L166.733 71.6307L166.396 72.5724ZM168.007 73.0199L168.229 72.0447L168.217 72.0421L168.007 73.0199ZM170.257 73.5312L170.035 74.5064L170.045 74.5085L170.257 73.5312ZM173.683 74.6562L173.255 75.5598L173.258 75.5612L173.683 74.6562ZM176.189 76.331L175.496 77.0516L175.5 77.056L176.189 76.331ZM177.736 78.5682L176.812 78.9508L176.812 78.9508L177.736 78.5682ZM178.273 81.4062L179.273 81.4114L179.273 81.3981L178.273 81.4062ZM177.02 85.6634L176.2 85.0911L176.2 85.0911L177.02 85.6634ZM173.453 88.3864L173.076 87.46L173.075 87.4607L173.453 88.3864ZM162.139 88.348L162.513 87.4205L162.513 87.4205L162.139 88.348ZM156.949 80.2812V79.2812H155.936L155.949 80.2937L156.949 80.2812ZM163.009 80.2812L164.007 80.2208L163.95 79.2812H163.009V80.2812ZM163.686 82.3906L162.872 82.9707L162.872 82.9707L163.686 82.3906ZM165.335 83.669L164.952 84.5928L164.956 84.5944L165.335 83.669ZM169.963 83.7585L169.608 82.8238L169.603 82.8255L169.963 83.7585ZM171.357 82.7997L170.572 82.179L170.572 82.179L171.357 82.7997ZM171.855 81.3935L172.855 81.4096L172.855 81.3929L172.855 81.3762L171.855 81.3935ZM171.395 80.1278L170.627 80.7681L170.634 80.7771L171.395 80.1278ZM170.014 79.2074L169.619 80.1259L169.626 80.1292L169.634 80.1323L170.014 79.2074ZM167.662 78.4787L167.434 79.4525L167.436 79.4528L167.662 78.4787ZM164.926 77.8395L165.154 76.8657L165.15 76.8648L164.926 77.8395ZM159.57 75.321L158.903 76.066L158.905 76.0684L159.57 75.321ZM157.626 70.5909L158.626 70.5952L158.626 70.5856L157.626 70.5909ZM158.93 66.3338L158.119 65.7494L158.119 65.7494L158.93 66.3338ZM162.574 63.483L162.976 64.3984L162.976 64.3984L162.574 63.483ZM173.159 63.4957L172.739 64.4033L172.745 64.4061L173.159 63.4957ZM176.649 66.3722L177.48 65.8161L177.48 65.8161L176.649 66.3722ZM177.915 70.6676V71.6676H178.925L178.915 70.6571L177.915 70.6676ZM172.851 70.5771C172.744 69.3954 172.247 68.399 171.328 67.69L170.106 69.273C170.535 69.6038 170.796 70.0649 170.859 70.7581L172.851 70.5771ZM171.34 67.6987C170.433 66.9782 169.229 66.6889 167.866 66.6889V68.6889C168.976 68.6889 169.672 68.9281 170.095 69.2644L171.34 67.6987ZM167.866 66.6889C166.97 66.6889 166.155 66.8046 165.457 67.0771L166.185 68.94C166.578 68.7863 167.127 68.6889 167.866 68.6889V66.6889ZM165.457 67.0771C164.78 67.3415 164.196 67.7369 163.785 68.3025L165.402 69.4788C165.537 69.2944 165.771 69.1017 166.185 68.94L165.457 67.0771ZM163.792 68.2936C163.388 68.8356 163.184 69.4622 163.172 70.1384L165.172 70.1741C165.177 69.8958 165.254 69.6786 165.396 69.4876L163.792 68.2936ZM163.173 70.1128C163.149 70.666 163.257 71.2034 163.534 71.6879L165.27 70.6956C165.206 70.5836 165.161 70.4306 165.171 70.1997L163.173 70.1128ZM163.544 71.7063C163.808 72.1446 164.169 72.5086 164.6 72.8066L165.738 71.1622C165.504 71 165.354 70.8355 165.259 70.6773L163.544 71.7063ZM164.624 72.8228C165.044 73.0957 165.526 73.3237 166.06 73.5142L166.733 71.6307C166.312 71.4803 165.976 71.3162 165.714 71.1459L164.624 72.8228ZM166.06 73.5142C166.586 73.7021 167.166 73.8624 167.798 73.9977L168.217 72.0421C167.655 71.9217 167.161 71.7837 166.733 71.6307L166.06 73.5142ZM167.785 73.995L170.035 74.5064L170.479 72.5561L168.229 72.0448L167.785 73.995ZM170.045 74.5085C171.281 74.7768 172.348 75.1298 173.255 75.5598L174.112 73.7527C173.041 73.2452 171.824 72.8482 170.469 72.554L170.045 74.5085ZM173.258 75.5612C174.173 75.9917 174.914 76.4917 175.496 77.0516L176.882 75.6103C176.118 74.8748 175.187 74.2583 174.109 73.7513L173.258 75.5612ZM175.5 77.056C176.084 77.6102 176.518 78.2403 176.812 78.9508L178.66 78.1856C178.255 77.2086 177.658 76.3472 176.878 75.606L175.5 77.056ZM176.812 78.9508C177.105 79.6595 177.265 80.4758 177.273 81.4144L179.273 81.3981C179.263 80.2401 179.065 79.1643 178.66 78.1856L176.812 78.9508ZM177.273 81.4011C177.265 82.8819 176.894 84.0961 176.2 85.0911L177.84 86.2356C178.799 84.8613 179.263 83.2374 179.273 81.4114L177.273 81.4011ZM176.2 85.0911C175.5 86.0934 174.478 86.8902 173.076 87.46L173.83 89.3127C175.531 88.6211 176.886 87.6026 177.84 86.2356L176.2 85.0911ZM173.075 87.4607C171.683 88.0297 169.957 88.3324 167.866 88.3324V90.3324C170.14 90.3324 172.138 90.0044 173.832 89.312L173.075 87.4607ZM167.866 88.3324C165.774 88.3324 163.997 88.0186 162.513 87.4205L161.765 89.2755C163.537 89.9899 165.579 90.3324 167.866 90.3324V88.3324ZM162.513 87.4205C161.053 86.832 159.953 85.9554 159.171 84.797L157.514 85.9161C158.538 87.4339 159.969 88.5515 161.765 89.2755L162.513 87.4205ZM159.171 84.797C158.403 83.6589 157.973 82.1709 157.949 80.2688L155.949 80.2937C155.976 82.4825 156.475 84.3781 157.514 85.9161L159.171 84.797ZM156.949 81.2812H163.009V79.2812H156.949V81.2812ZM162.01 80.3417C162.07 81.3305 162.34 82.2246 162.872 82.9707L164.501 81.8106C164.231 81.4316 164.049 80.9195 164.007 80.2208L162.01 80.3417ZM162.872 82.9707C163.391 83.7004 164.097 84.2383 164.952 84.5928L165.718 82.7453C165.175 82.5202 164.782 82.2058 164.501 81.8106L162.872 82.9707ZM164.956 84.5944C165.807 84.9428 166.758 85.1037 167.79 85.1037V83.1037C166.964 83.1037 166.278 82.9748 165.714 82.7437L164.956 84.5944ZM167.79 85.1037C168.727 85.1037 169.58 84.978 170.323 84.6915L169.603 82.8255C169.153 82.9993 168.558 83.1037 167.79 83.1037V85.1037ZM170.319 84.6932C171.052 84.4143 171.681 84.0013 172.141 83.4204L170.572 82.179C170.385 82.4163 170.084 82.6425 169.608 82.8238L170.319 84.6932ZM172.141 83.4204C172.603 82.8366 172.843 82.1547 172.855 81.4096L170.855 81.3773C170.85 81.689 170.758 81.9446 170.572 82.179L172.141 83.4204ZM172.855 81.3762C172.843 80.6688 172.616 80.0184 172.155 79.4786L170.634 80.7771C170.77 80.9361 170.85 81.1295 170.855 81.4107L172.855 81.3762ZM172.163 79.4877C171.725 78.9614 171.105 78.5744 170.394 78.2824L169.634 80.1323C170.168 80.3517 170.469 80.5783 170.627 80.768L172.163 79.4877ZM170.41 78.2889C169.722 77.993 168.876 77.734 167.888 77.5046L167.436 79.4528C168.357 79.6665 169.079 79.8933 169.619 80.1259L170.41 78.2889ZM167.889 77.5049L165.154 76.8657L164.699 78.8133L167.434 79.4525L167.889 77.5049ZM165.15 76.8648C162.994 76.3704 161.378 75.5901 160.234 74.5736L158.905 76.0684C160.37 77.3701 162.324 78.2688 164.703 78.8142L165.15 76.8648ZM160.237 74.576C159.176 73.6259 158.619 72.3378 158.626 70.5952L156.626 70.5866C156.617 72.8156 157.356 74.681 158.903 76.066L160.237 74.576ZM158.626 70.5856C158.619 69.1604 158.997 67.9517 159.742 66.9183L158.119 65.7494C157.108 67.1534 156.617 68.7828 156.626 70.5962L158.626 70.5856ZM159.742 66.9183C160.502 65.8622 161.567 65.0178 162.976 64.3984L162.171 62.5675C160.478 63.3118 159.114 64.3679 158.119 65.7494L159.742 66.9183ZM162.976 64.3984C164.381 63.7811 166.008 63.4602 167.879 63.4602V61.4602C165.778 61.4602 163.869 61.8212 162.171 62.5675L162.976 64.3984ZM167.879 63.4602C169.796 63.4602 171.406 63.7864 172.739 64.4032L173.579 62.5882C171.929 61.8244 170.02 61.4602 167.879 61.4602V63.4602ZM172.745 64.4061C174.095 65.0195 175.106 65.8634 175.818 66.9282L177.48 65.8161C176.539 64.4093 175.223 63.3356 173.573 62.5854L172.745 64.4061ZM175.818 66.9282C176.526 67.9871 176.9 69.2254 176.915 70.6781L178.915 70.6571C178.896 68.8541 178.425 67.2288 177.48 65.8161L175.818 66.9282ZM177.915 69.6676H171.855V71.6676H177.915V69.6676ZM194.946 89L193.986 89.2794L194.195 90H194.946V89ZM187.326 62.8182V61.8182H185.994L186.366 63.0976L187.326 62.8182ZM194.319 62.8182L195.294 62.5938L195.115 61.8182H194.319V62.8182ZM198.27 79.9744L197.295 80.1988L197.474 80.9744H198.27V79.9744ZM198.487 79.9744V80.9744H199.258L199.454 80.2288L198.487 79.9744ZM203 62.8182V61.8182H202.229L202.033 62.5638L203 62.8182ZM208.701 62.8182L209.669 62.5643L209.473 61.8182H208.701V62.8182ZM213.214 80.0128L212.247 80.2666L212.443 81.0128H213.214V80.0128ZM213.432 80.0128V81.0128H214.227L214.406 80.2374L213.432 80.0128ZM217.395 62.8182V61.8182H216.599L216.42 62.5936L217.395 62.8182ZM224.375 62.8182L225.335 63.0972L225.707 61.8182H224.375V62.8182ZM216.768 89V90H217.519L217.728 89.279L216.768 89ZM210.67 89L209.712 89.2848L209.924 90H210.67V89ZM205.953 73.1222L206.911 72.8374L206.699 72.1222H205.953V73.1222ZM205.748 73.1222V72.1222H205.002L204.79 72.8374L205.748 73.1222ZM201.031 89V90H201.777L201.99 89.2848L201.031 89ZM195.906 88.7206L188.287 62.5388L186.366 63.0976L193.986 89.2794L195.906 88.7206ZM187.326 63.8182H194.319V61.8182H187.326V63.8182ZM193.345 63.0426L197.295 80.1988L199.244 79.75L195.294 62.5938L193.345 63.0426ZM198.27 80.9744H198.487V78.9744H198.27V80.9744ZM199.454 80.2288L203.967 63.0726L202.033 62.5638L197.52 79.72L199.454 80.2288ZM203 63.8182H208.701V61.8182H203V63.8182ZM207.734 63.072L212.247 80.2666L214.181 79.7589L209.669 62.5643L207.734 63.072ZM213.214 81.0128H213.432V79.0128H213.214V81.0128ZM214.406 80.2374L218.369 63.0428L216.42 62.5936L212.457 79.7882L214.406 80.2374ZM217.395 63.8182H224.375V61.8182H217.395V63.8182ZM223.414 62.5392L215.808 88.721L217.728 89.279L225.335 63.0972L223.414 62.5392ZM216.768 88H210.67V90H216.768V88ZM211.629 88.7152L206.911 72.8374L204.994 73.407L209.712 89.2848L211.629 88.7152ZM205.953 72.1222H205.748V74.1222H205.953V72.1222ZM204.79 72.8374L200.072 88.7152L201.99 89.2848L206.707 73.407L204.79 72.8374ZM201.031 88H194.946V90H201.031V88ZM237.005 89V90H237.739L237.959 89.299L237.005 89ZM230.204 89L229.256 88.6803L228.811 90H230.204V89ZM239.037 62.8182V61.8182H238.319L238.09 62.4985L239.037 62.8182ZM247.462 62.8182L248.41 62.4985L248.18 61.8182H247.462V62.8182ZM256.296 89V90H257.689L257.243 88.6803L256.296 89ZM249.495 89L248.541 89.2996L248.761 90H249.495V89ZM243.346 69.4148L244.3 69.1152L244.08 68.4148H243.346V69.4148ZM243.141 69.4148V68.4148H242.406L242.187 69.1158L243.141 69.4148ZM236.097 78.696V77.696H235.097V78.696H236.097ZM250.313 78.696H251.313V77.696H250.313V78.696ZM250.313 83.5028V84.5028H251.313V83.5028H250.313ZM236.097 83.5028H235.097V84.5028H236.097V83.5028ZM237.005 88H230.204V90H237.005V88ZM231.151 89.3197L239.985 63.1379L238.09 62.4985L229.256 88.6803L231.151 89.3197ZM239.037 63.8182H247.462V61.8182H239.037V63.8182ZM246.515 63.1379L255.348 89.3197L257.243 88.6803L248.41 62.4985L246.515 63.1379ZM256.296 88H249.495V90H256.296V88ZM250.449 88.7004L244.3 69.1152L242.392 69.7143L248.541 89.2996L250.449 88.7004ZM243.346 68.4148H243.141V70.4148H243.346V68.4148ZM242.187 69.1158L236.05 88.701L237.959 89.299L244.095 69.7138L242.187 69.1158ZM236.097 79.696H250.313V77.696H236.097V79.696ZM249.313 78.696V83.5028H251.313V78.696H249.313ZM250.313 82.5028H236.097V84.5028H250.313V82.5028ZM237.097 83.5028V78.696H235.097V83.5028H237.097ZM266.315 89H265.315V90H266.315V89ZM266.315 62.8182V61.8182H265.315V62.8182H266.315ZM282.205 63.9688L281.731 64.8491L281.737 64.8524L282.205 63.9688ZM285.517 67.152L284.647 67.6464L284.649 67.6487L285.517 67.152ZM285.491 76.625L284.628 76.1201L284.627 76.1218L285.491 76.625ZM282.129 79.7571L282.582 80.6484L282.582 80.6484L282.129 79.7571ZM270.265 80.8693H269.265V81.8693H270.265V80.8693ZM270.265 75.8835V74.8835H269.265V75.8835H270.265ZM278.153 75.3849L277.696 74.4952L277.692 74.4977L278.153 75.3849ZM279.623 73.9915L280.497 74.4782L280.5 74.4729L279.623 73.9915ZM279.623 69.7855L278.749 70.2722L278.753 70.2776L279.623 69.7855ZM278.153 68.4048L277.706 69.2993L277.706 69.2993L278.153 68.4048ZM272.643 67.919V66.919H271.643V67.919H272.643ZM272.643 89V90H273.643V89H272.643ZM267.315 89V62.8182H265.315V89H267.315ZM266.315 63.8182H277.13V61.8182H266.315V63.8182ZM277.13 63.8182C278.96 63.8182 280.481 64.1756 281.731 64.8491L282.68 63.0884C281.083 62.2278 279.221 61.8182 277.13 61.8182V63.8182ZM281.737 64.8524C283.007 65.525 283.969 66.4536 284.647 67.6464L286.386 66.6576C285.513 65.1231 284.268 63.9295 282.674 63.0851L281.737 64.8524ZM284.649 67.6487C285.325 68.8309 285.68 70.2313 285.68 71.8821H287.68C287.68 69.9363 287.259 68.1833 286.384 66.6553L284.649 67.6487ZM285.68 71.8821C285.68 73.5386 285.318 74.94 284.628 76.1201L286.354 77.1299C287.249 75.5997 287.68 73.8392 287.68 71.8821H285.68ZM284.627 76.1218C283.944 77.2938 282.97 78.207 281.675 78.8658L282.582 80.6484C284.202 79.8242 285.469 78.6494 286.355 77.1282L284.627 76.1218ZM281.675 78.8658C280.386 79.5215 278.819 79.8693 276.938 79.8693V81.8693C279.064 81.8693 280.956 81.4756 282.582 80.6484L281.675 78.8658ZM276.938 79.8693H270.265V81.8693H276.938V79.8693ZM271.265 80.8693V75.8835H269.265V80.8693H271.265ZM270.265 76.8835H275.762V74.8835H270.265V76.8835ZM275.762 76.8835C276.827 76.8835 277.794 76.6988 278.614 76.2722L277.692 74.4977C277.234 74.7359 276.606 74.8835 275.762 74.8835V76.8835ZM278.609 76.2746C279.421 75.8583 280.062 75.2589 280.497 74.4782L278.75 73.5048C278.52 73.9172 278.181 74.2468 277.696 74.4952L278.609 76.2746ZM280.5 74.4729C280.925 73.6982 281.122 72.8244 281.122 71.8821H279.122C279.122 72.5421 278.986 73.0746 278.747 73.51L280.5 74.4729ZM281.122 71.8821C281.122 70.9342 280.926 70.0589 280.494 69.2935L278.753 70.2776C278.985 70.6883 279.122 71.2106 279.122 71.8821H281.122ZM280.497 69.2988C280.06 68.5157 279.416 67.9185 278.6 67.5104L277.706 69.2993C278.185 69.5389 278.521 69.8622 278.75 70.2722L280.497 69.2988ZM278.6 67.5104C277.778 67.0992 276.818 66.919 275.762 66.919V68.919C276.599 68.919 277.233 69.0627 277.706 69.2993L278.6 67.5104ZM275.762 66.919H272.643V68.919H275.762V66.919ZM271.643 67.919V89H273.643V67.919H271.643ZM272.643 88H266.315V90H272.643V88Z" fill="#C3ED1C"/>
</g>
<defs>
<filter id="filter0_d_410_888" x="-2" y="-3" width="197.099" height="170.577" filterUnits="userSpaceOnUse" color-interpolation-filters="sRGB">
<feFlood flood-opacity="0" result="BackgroundImageFix"/>
<feColorMatrix in="SourceAlpha" type="matrix" values="0 0 0 0 0 0 0 0 0 0 0 0 0 0 0 0 0 0 127 0" result="hardAlpha"/>
<feOffset dx="-4" dy="-2"/>
<feGaussianBlur stdDeviation="3"/>
<feColorMatrix type="matrix" values="0 0 0 0 0.656441 0 0 0 0 0.810424 0 0 0 0 0.0405097 0 0 0 1 0"/>
<feBlend mode="normal" in2="BackgroundImageFix" result="effect1_dropShadow_410_888"/>
<feBlend mode="normal" in="SourceGraphic" in2="effect1_dropShadow_410_888" result="shape"/>
</filter>
<filter id="filter1_d_410_888" x="8.90088" y="7.27344" width="95.9629" height="131.66" filterUnits="userSpaceOnUse" color-interpolation-filters="sRGB">
<feFlood flood-opacity="0" result="BackgroundImageFix"/>
<feColorMatrix in="SourceAlpha" type="matrix" values="0 0 0 0 0 0 0 0 0 0 0 0 0 0 0 0 0 0 127 0" result="hardAlpha"/>
<feOffset dx="2" dy="2"/>
<feGaussianBlur stdDeviation="2"/>
<feComposite in2="hardAlpha" operator="out"/>
<feColorMatrix type="matrix" values="0 0 0 0 0.294118 0 0 0 0 0.301961 0 0 0 0 0.329412 0 0 0 1 0"/>
<feBlend mode="normal" in2="BackgroundImageFix" result="effect1_dropShadow_410_888"/>
<feBlend mode="normal" in="SourceGraphic" in2="effect1_dropShadow_410_888" result="shape"/>
</filter>
<filter id="filter2_d_410_888" x="99.8516" y="55.7949" width="92.252" height="106.653" filterUnits="userSpaceOnUse" color-interpolation-filters="sRGB">
<feFlood flood-opacity="0" result="BackgroundImageFix"/>
<feColorMatrix in="SourceAlpha" type="matrix" values="0 0 0 0 0 0 0 0 0 0 0 0 0 0 0 0 0 0 127 0" result="hardAlpha"/>
<feOffset dx="-1" dy="-1"/>
<feGaussianBlur stdDeviation="2"/>
<feComposite in2="hardAlpha" operator="out"/>
<feColorMatrix type="matrix" values="0 0 0 0 1 0 0 0 0 1 0 0 0 0 1 0 0 0 0.38 0"/>
<feBlend mode="normal" in2="BackgroundImageFix" result="effect1_dropShadow_410_888"/>
<feBlend mode="normal" in="SourceGraphic" in2="effect1_dropShadow_410_888" result="shape"/>
</filter>
<filter id="filter3_f_410_888" x="60.9819" y="58.46" width="229.698" height="34.8984" filterUnits="userSpaceOnUse" color-interpolation-filters="sRGB">
<feFlood flood-opacity="0" result="BackgroundImageFix"/>
<feBlend mode="normal" in="SourceGraphic" in2="BackgroundImageFix" result="shape"/>
<feGaussianBlur stdDeviation="2" result="effect1_foregroundBlur_410_888"/>
</filter>
<linearGradient id="paint0_linear_410_888" x1="29.4904" y1="98.763" x2="88.3638" y2="-7.99782" gradientUnits="userSpaceOnUse">
<stop stop-color="#201CED"/>
<stop offset="1" stop-color="#C3ED1C"/>
</linearGradient>
<linearGradient id="paint1_linear_410_888" x1="135.139" y1="147.132" x2="153.06" y2="102.149" gradientUnits="userSpaceOnUse">
<stop stop-color="#C3ED1C"/>
<stop offset="1" stop-color="#201CED"/>
</linearGradient>
<linearGradient id="paint2_linear_410_888" x1="173.524" y1="88.6726" x2="181.846" y2="69.8743" gradientUnits="userSpaceOnUse">
<stop stop-color="#201CED"/>
<stop offset="1" stop-color="#201CED"/>
</linearGradient>
</defs>
</svg>
