<svg width="297" height="37" viewBox="0 0 297 37" fill="none" xmlns="http://www.w3.org/2000/svg">
    <path
        d="M0.642046 36V1.09091H9.07955V29.1477H23.6023V36H0.642046ZM37.5702 36V1.09091H61.9111V7.94318H46.0077V15.1023H60.6668V21.9716H46.0077V29.1477H61.9111V36H37.5702ZM109.744 18.5455C109.744 22.3864 109.005 25.642 107.528 28.3125C106.051 30.983 104.051 33.0114 101.528 34.3977C99.0168 35.7841 96.1986 36.4773 93.0736 36.4773C89.9372 36.4773 87.1133 35.7784 84.602 34.3807C82.0906 32.983 80.0963 30.9545 78.619 28.2955C77.1531 25.625 76.4202 22.375 76.4202 18.5455C76.4202 14.7045 77.1531 11.4489 78.619 8.77841C80.0963 6.10795 82.0906 4.07955 84.602 2.69318C87.1133 1.30682 89.9372 0.613635 93.0736 0.613635C96.1986 0.613635 99.0168 1.30682 101.528 2.69318C104.051 4.07955 106.051 6.10795 107.528 8.77841C109.005 11.4489 109.744 14.7045 109.744 18.5455ZM101.119 18.5455C101.119 16.2727 100.795 14.3523 100.147 12.7841C99.5111 11.2159 98.5906 10.0284 97.3861 9.22159C96.1929 8.41477 94.7554 8.01136 93.0736 8.01136C91.4031 8.01136 89.9656 8.41477 88.7611 9.22159C87.5565 10.0284 86.6304 11.2159 85.9827 12.7841C85.3463 14.3523 85.0281 16.2727 85.0281 18.5455C85.0281 20.8182 85.3463 22.7386 85.9827 24.3068C86.6304 25.875 87.5565 27.0625 88.7611 27.8693C89.9656 28.6761 91.4031 29.0795 93.0736 29.0795C94.7554 29.0795 96.1929 28.6761 97.3861 27.8693C98.5906 27.0625 99.5111 25.875 100.147 24.3068C100.795 22.7386 101.119 20.8182 101.119 18.5455ZM143.139 11.5568C143.026 10.3068 142.52 9.33523 141.622 8.64205C140.736 7.9375 139.469 7.58523 137.821 7.58523C136.73 7.58523 135.821 7.72727 135.094 8.01136C134.367 8.29545 133.821 8.6875 133.458 9.1875C133.094 9.67614 132.907 10.2386 132.895 10.875C132.872 11.3977 132.975 11.858 133.202 12.2557C133.441 12.6534 133.782 13.0057 134.225 13.3125C134.679 13.608 135.225 13.8693 135.861 14.0966C136.497 14.3239 137.213 14.5227 138.009 14.6932L141.009 15.375C142.736 15.75 144.259 16.25 145.577 16.875C146.907 17.5 148.02 18.2443 148.918 19.108C149.827 19.9716 150.514 20.9659 150.98 22.0909C151.446 23.2159 151.685 24.4773 151.696 25.875C151.685 28.0795 151.128 29.9716 150.026 31.5511C148.924 33.1307 147.338 34.3409 145.27 35.1818C143.213 36.0227 140.73 36.4432 137.821 36.4432C134.901 36.4432 132.355 36.0057 130.185 35.1307C128.014 34.2557 126.327 32.9261 125.122 31.142C123.918 29.358 123.299 27.1023 123.264 24.375H131.344C131.412 25.5 131.713 26.4375 132.247 27.1875C132.782 27.9375 133.514 28.5057 134.446 28.892C135.389 29.2784 136.48 29.4716 137.719 29.4716C138.855 29.4716 139.821 29.3182 140.617 29.0114C141.424 28.7045 142.043 28.2784 142.475 27.733C142.907 27.1875 143.128 26.5625 143.139 25.858C143.128 25.1989 142.924 24.6364 142.526 24.1705C142.128 23.6932 141.514 23.2841 140.685 22.9432C139.867 22.5909 138.821 22.267 137.549 21.9716L133.901 21.1193C130.878 20.4261 128.497 19.3068 126.759 17.7614C125.02 16.2045 124.157 14.1023 124.168 11.4545C124.157 9.29545 124.736 7.40341 125.907 5.77841C127.077 4.15341 128.696 2.88636 130.764 1.97727C132.833 1.06818 135.191 0.613635 137.838 0.613635C140.543 0.613635 142.889 1.07386 144.878 1.99432C146.878 2.90341 148.429 4.18182 149.532 5.82955C150.634 7.47727 151.196 9.38636 151.219 11.5568H143.139ZM173.927 36L163.768 1.09091H173.092L178.359 23.9659H178.649L184.666 1.09091H192.268L198.285 24.017H198.575L203.859 1.09091H213.166L203.024 36H194.893L188.603 14.8295H188.33L182.041 36H173.927ZM230.006 36H220.938L232.716 1.09091H243.949L255.727 36H246.659L238.46 9.88636H238.188L230.006 36ZM228.795 22.2614H247.75V28.6705H228.795V22.2614ZM269.086 36V1.09091H283.506C286.12 1.09091 288.376 1.60227 290.273 2.625C292.182 3.63636 293.654 5.05113 294.688 6.86932C295.722 8.67614 296.239 10.7784 296.239 13.1761C296.239 15.5852 295.711 17.6932 294.654 19.5C293.609 21.2955 292.114 22.6875 290.171 23.6761C288.228 24.6648 285.921 25.1591 283.251 25.1591H274.353V18.5114H281.682C282.955 18.5114 284.018 18.2898 284.87 17.8466C285.734 17.4034 286.387 16.7841 286.83 15.9886C287.273 15.1818 287.495 14.2443 287.495 13.1761C287.495 12.0966 287.273 11.1648 286.83 10.3807C286.387 9.58523 285.734 8.97159 284.87 8.53977C284.006 8.10795 282.944 7.89205 281.682 7.89205H277.523V36H269.086Z"
        fill="#201CED" />
    <path
        d="M0.642045 36H-2.35795V39H0.642045V36ZM0.642045 1.09091V-1.90909H-2.35795V1.09091H0.642045ZM9.07955 1.09091H12.0795V-1.90909H9.07955V1.09091ZM9.07955 29.1477H6.07955V32.1477H9.07955V29.1477ZM23.6023 29.1477H26.6023V26.1477H23.6023V29.1477ZM23.6023 36V39H26.6023V36H23.6023ZM3.64205 36V1.09091H-2.35795V36H3.64205ZM0.642045 4.09091H9.07955V-1.90909H0.642045V4.09091ZM6.07955 1.09091V29.1477H12.0795V1.09091H6.07955ZM9.07955 32.1477H23.6023V26.1477H9.07955V32.1477ZM20.6023 29.1477V36H26.6023V29.1477H20.6023ZM23.6023 33H0.642045V39H23.6023V33ZM37.5702 36H34.5702V39H37.5702V36ZM37.5702 1.09091V-1.90909H34.5702V1.09091H37.5702ZM61.9111 1.09091H64.9111V-1.90909H61.9111V1.09091ZM61.9111 7.94318V10.9432H64.9111V7.94318H61.9111ZM46.0077 7.94318V4.94318H43.0077V7.94318H46.0077ZM46.0077 15.1023H43.0077V18.1023H46.0077V15.1023ZM60.6668 15.1023H63.6668V12.1023H60.6668V15.1023ZM60.6668 21.9716V24.9716H63.6668V21.9716H60.6668ZM46.0077 21.9716V18.9716H43.0077V21.9716H46.0077ZM46.0077 29.1477H43.0077V32.1477H46.0077V29.1477ZM61.9111 29.1477H64.9111V26.1477H61.9111V29.1477ZM61.9111 36V39H64.9111V36H61.9111ZM40.5702 36V1.09091H34.5702V36H40.5702ZM37.5702 4.09091H61.9111V-1.90909H37.5702V4.09091ZM58.9111 1.09091V7.94318H64.9111V1.09091H58.9111ZM61.9111 4.94318H46.0077V10.9432H61.9111V4.94318ZM43.0077 7.94318V15.1023H49.0077V7.94318H43.0077ZM46.0077 18.1023H60.6668V12.1023H46.0077V18.1023ZM57.6668 15.1023V21.9716H63.6668V15.1023H57.6668ZM60.6668 18.9716H46.0077V24.9716H60.6668V18.9716ZM43.0077 21.9716V29.1477H49.0077V21.9716H43.0077ZM46.0077 32.1477H61.9111V26.1477H46.0077V32.1477ZM58.9111 29.1477V36H64.9111V29.1477H58.9111ZM61.9111 33H37.5702V39H61.9111V33ZM107.528 28.3125L104.903 26.8603V26.8603L107.528 28.3125ZM101.528 34.3977L100.083 31.7686L100.078 31.7713L101.528 34.3977ZM84.602 34.3807L86.0609 31.7593L84.602 34.3807ZM78.619 28.2955L75.9892 29.7391L75.9929 29.7457L75.9966 29.7524L78.619 28.2955ZM78.619 8.77841L75.9939 7.32622L75.9892 7.3348L78.619 8.77841ZM84.602 2.69318L86.0518 5.31957V5.31957L84.602 2.69318ZM101.528 2.69318L100.078 5.31957L100.083 5.32233L101.528 2.69318ZM107.528 8.77841L104.903 10.2306L107.528 8.77841ZM100.147 12.7841L97.3676 13.9121L97.3711 13.9208L97.3747 13.9294L100.147 12.7841ZM97.3861 9.22159L95.7056 11.7068L95.7166 11.7141L97.3861 9.22159ZM88.7611 9.22159L90.4306 11.7141L88.7611 9.22159ZM85.9827 12.7841L83.2099 11.6388L83.2063 11.6474L83.2028 11.656L85.9827 12.7841ZM85.9827 24.3068L83.2028 25.4349L83.2063 25.4435L83.2099 25.4521L85.9827 24.3068ZM88.7611 27.8693L90.4306 25.3768L88.7611 27.8693ZM97.3861 27.8693L95.7165 25.3768L95.7056 25.3841L97.3861 27.8693ZM100.147 24.3068L97.3747 23.1615L97.3711 23.1701L97.3676 23.1788L100.147 24.3068ZM106.744 18.5455C106.744 22.0074 106.079 24.7351 104.903 26.8603L110.153 29.7647C111.932 26.549 112.744 22.7653 112.744 18.5455H106.744ZM104.903 26.8603C103.683 29.0661 102.079 30.6719 100.083 31.7686L102.973 37.0269C106.023 35.3509 108.419 32.8998 110.153 29.7647L104.903 26.8603ZM100.078 31.7713C98.0499 32.8911 95.738 33.4773 93.0736 33.4773V39.4773C96.6592 39.4773 99.9837 38.6771 102.978 37.0241L100.078 31.7713ZM93.0736 33.4773C90.4 33.4773 88.0861 32.8865 86.0609 31.7593L83.143 37.002C86.1406 38.6703 89.4744 39.4773 93.0736 39.4773V33.4773ZM86.0609 31.7593C84.0674 30.6498 82.4637 29.0384 81.2415 26.8385L75.9966 29.7524C77.7289 32.8707 80.1139 35.3161 83.143 37.002L86.0609 31.7593ZM81.2489 26.8518C80.0805 24.7235 79.4202 21.9977 79.4202 18.5455H73.4202C73.4202 22.7523 74.2257 26.5265 75.9892 29.7391L81.2489 26.8518ZM79.4202 18.5455C79.4202 15.0801 80.0812 12.3492 81.2489 10.222L75.9892 7.3348C74.2251 10.5485 73.4202 14.329 73.4202 18.5455H79.4202ZM81.2441 10.2306C82.4662 8.02139 84.0669 6.4153 86.0518 5.31957L83.1521 0.0667944C80.1143 1.74378 77.7264 4.19452 75.9939 7.32622L81.2441 10.2306ZM86.0518 5.31957C88.0786 4.2007 90.3958 3.61364 93.0736 3.61364V-2.38636C89.4786 -2.38636 86.1481 -1.58707 83.1521 0.0667953L86.0518 5.31957ZM93.0736 3.61364C95.738 3.61364 98.0499 4.19981 100.078 5.31957L102.978 0.0667953C99.9837 -1.58617 96.6592 -2.38636 93.0736 -2.38636V3.61364ZM100.083 5.32233C102.079 6.41904 103.683 8.02484 104.903 10.2306L110.153 7.32622C108.419 4.19107 106.023 1.74005 102.973 0.0640335L100.083 5.32233ZM104.903 10.2306C106.079 12.3559 106.744 15.0835 106.744 18.5455H112.744C112.744 14.3256 111.932 10.5419 110.153 7.32622L104.903 10.2306ZM104.119 18.5455C104.119 16.0056 103.76 13.6708 102.92 11.6388L97.3747 13.9294C97.8308 15.0338 98.119 16.5398 98.119 18.5455H104.119ZM102.927 11.656C102.104 9.62761 100.837 7.92252 99.0556 6.72906L95.7166 11.7141C96.3439 12.1343 96.918 12.8042 97.3676 13.9121L102.927 11.656ZM99.0665 6.73642C97.2982 5.54072 95.2515 5.01136 93.0736 5.01136V11.0114C94.2593 11.0114 95.0876 11.2888 95.7056 11.7068L99.0665 6.73642ZM93.0736 5.01136C90.9016 5.01136 88.862 5.54317 87.0916 6.72906L90.4306 11.7141C91.0692 11.2864 91.9046 11.0114 93.0736 11.0114V5.01136ZM87.0916 6.72906C85.3148 7.91918 84.0446 9.61786 83.2099 11.6388L88.7555 13.9294C89.2162 12.814 89.7983 12.1376 90.4306 11.7141L87.0916 6.72906ZM83.2028 11.656C82.3805 13.6825 82.0281 16.0109 82.0281 18.5455H88.0281C88.0281 16.5345 88.3121 15.0221 88.7625 13.9121L83.2028 11.656ZM82.0281 18.5455C82.0281 21.08 82.3805 23.4084 83.2028 25.4349L88.7625 23.1788C88.3121 22.0688 88.0281 20.5564 88.0281 18.5455H82.0281ZM83.2099 25.4521C84.0446 27.473 85.3148 29.1717 87.0916 30.3618L90.4306 25.3768C89.7983 24.9533 89.2162 24.277 88.7555 23.1615L83.2099 25.4521ZM87.0916 30.3618C88.862 31.5477 90.9016 32.0795 93.0736 32.0795V26.0795C91.9046 26.0795 91.0692 25.8045 90.4306 25.3768L87.0916 30.3618ZM93.0736 32.0795C95.2515 32.0795 97.2982 31.5502 99.0665 30.3545L95.7056 25.3841C95.0876 25.8021 94.2593 26.0795 93.0736 26.0795V32.0795ZM99.0556 30.3618C100.837 29.1684 102.104 27.4633 102.927 25.4349L97.3676 23.1788C96.918 24.2867 96.3439 24.9566 95.7166 25.3768L99.0556 30.3618ZM102.92 25.4521C103.76 23.4201 104.119 21.0853 104.119 18.5455H98.119C98.119 20.5511 97.8308 22.0572 97.3747 23.1615L102.92 25.4521ZM143.139 11.5568L140.152 11.8284L140.4 14.5568H143.139V11.5568ZM141.622 8.64205L139.756 10.9905L139.772 11.0037L139.789 11.0166L141.622 8.64205ZM135.094 8.01136L134.002 5.21699V5.21699L135.094 8.01136ZM133.458 9.1875L135.864 10.9785L135.874 10.9653L135.884 10.952L133.458 9.1875ZM132.895 10.875L135.892 11.0053L135.894 10.967L135.895 10.9286L132.895 10.875ZM133.202 12.2557L130.597 13.7441L130.613 13.7718L130.63 13.7992L133.202 12.2557ZM134.225 13.3125L132.517 15.7791L132.553 15.804L132.59 15.8278L134.225 13.3125ZM135.861 14.0966L136.87 11.2714L136.87 11.2714L135.861 14.0966ZM138.009 14.6932L138.674 11.7678L138.656 11.7637L138.637 11.7598L138.009 14.6932ZM141.009 15.375L140.344 18.3004L140.358 18.3036L140.372 18.3067L141.009 15.375ZM145.577 16.875L144.292 19.5858L144.301 19.59L145.577 16.875ZM148.918 19.108L146.838 21.2699L146.845 21.2765L146.852 21.283L148.918 19.108ZM150.98 22.0909L148.209 23.2388V23.2388L150.98 22.0909ZM151.696 25.875L154.696 25.8905L154.696 25.8705L154.696 25.8506L151.696 25.875ZM150.026 31.5511L147.566 29.8343V29.8343L150.026 31.5511ZM145.27 35.1818L144.14 32.4027L144.135 32.4049L145.27 35.1818ZM130.185 35.1307L131.307 32.3483L130.185 35.1307ZM123.264 24.375V21.375H120.227L120.265 24.4125L123.264 24.375ZM131.344 24.375L134.339 24.1935L134.168 21.375H131.344V24.375ZM132.247 27.1875L129.804 28.9277V28.9277L132.247 27.1875ZM134.446 28.892L133.297 31.6633L133.309 31.6682L134.446 28.892ZM140.617 29.0114L139.55 26.2073L139.544 26.2098L139.537 26.2124L140.617 29.0114ZM142.475 27.733L140.123 25.8708H140.123L142.475 27.733ZM143.139 25.858L146.139 25.9063L146.14 25.8563L146.139 25.8062L143.139 25.858ZM142.526 24.1705L140.221 26.091L140.233 26.1047L140.244 26.1182L142.526 24.1705ZM140.685 22.9432L139.499 25.6986L139.522 25.7085L139.545 25.718L140.685 22.9432ZM137.549 21.9716L136.866 24.8929L136.87 24.8939L137.549 21.9716ZM133.901 21.1193L134.583 18.198L134.571 18.1952L133.901 21.1193ZM126.759 17.7614L124.758 19.9963L124.766 20.0036L126.759 17.7614ZM124.168 11.4545L127.168 11.4674L127.168 11.4531L127.168 11.4388L124.168 11.4545ZM125.907 5.77841L123.472 4.02505L125.907 5.77841ZM130.764 1.97727L131.972 4.72366V4.72366L130.764 1.97727ZM144.878 1.99432L143.618 4.71683L143.627 4.72115L143.637 4.72542L144.878 1.99432ZM149.532 5.82955L152.025 4.16148V4.16148L149.532 5.82955ZM151.219 11.5568V14.5568H154.251L154.219 11.5254L151.219 11.5568ZM146.127 11.2852C145.947 9.3026 145.088 7.52805 143.456 6.26753L139.789 11.0166C139.952 11.1424 140.105 11.311 140.152 11.8284L146.127 11.2852ZM143.489 6.29358C141.878 5.01268 139.848 4.58523 137.821 4.58523V10.5852C139.09 10.5852 139.594 10.8623 139.756 10.9905L143.489 6.29358ZM137.821 4.58523C136.494 4.58523 135.186 4.75463 134.002 5.21699L136.186 10.8057C136.456 10.6999 136.966 10.5852 137.821 10.5852V4.58523ZM134.002 5.21699C132.881 5.6552 131.811 6.35126 131.031 7.42299L135.884 10.952C135.832 11.0237 135.853 10.9357 136.186 10.8057L134.002 5.21699ZM131.051 7.39647C130.296 8.41162 129.918 9.58819 129.896 10.8214L135.895 10.9286C135.895 10.9091 135.897 10.9011 135.896 10.9025C135.896 10.9041 135.895 10.9121 135.89 10.9245C135.886 10.937 135.881 10.9496 135.875 10.9609C135.872 10.9663 135.87 10.9706 135.868 10.9738C135.867 10.9753 135.866 10.9765 135.865 10.9773C135.865 10.9781 135.864 10.9785 135.864 10.9785L131.051 7.39647ZM129.898 10.7447C129.854 11.7508 130.051 12.7876 130.597 13.7441L135.807 10.7673C135.847 10.8374 135.871 10.9063 135.883 10.9614C135.895 11.0139 135.891 11.0328 135.892 11.0053L129.898 10.7447ZM130.63 13.7992C131.12 14.6172 131.78 15.2686 132.517 15.7791L135.932 10.8459C135.783 10.7428 135.761 10.6896 135.774 10.7122L130.63 13.7992ZM132.59 15.8278C133.281 16.2773 134.047 16.6343 134.852 16.9218L136.87 11.2714C136.402 11.1043 136.077 10.9386 135.86 10.7972L132.59 15.8278ZM134.852 16.9218C135.635 17.2013 136.481 17.4339 137.38 17.6266L138.637 11.7598C137.946 11.6116 137.36 11.4464 136.87 11.2714L134.852 16.9218ZM137.344 17.6186L140.344 18.3004L141.674 12.4496L138.674 11.7678L137.344 17.6186ZM140.372 18.3067C141.921 18.6429 143.219 19.077 144.292 19.5857L146.862 14.1643C145.299 13.423 143.551 12.8571 141.645 12.4433L140.372 18.3067ZM144.301 19.59C145.386 20.1001 146.214 20.6698 146.838 21.2699L150.998 16.946C149.826 15.8189 148.427 14.8999 146.853 14.16L144.301 19.59ZM146.852 21.283C147.466 21.8662 147.908 22.5134 148.209 23.2388L153.752 20.943C153.121 19.4184 152.188 18.077 150.984 16.933L146.852 21.283ZM148.209 23.2388C148.507 23.9587 148.688 24.8308 148.696 25.8994L154.696 25.8506C154.682 24.1237 154.386 22.4731 153.752 20.943L148.209 23.2388ZM148.696 25.8595C148.688 27.5463 148.271 28.8237 147.566 29.8343L152.486 33.268C153.985 31.1195 154.682 28.6128 154.696 25.8905L148.696 25.8595ZM147.566 29.8343C146.845 30.8669 145.759 31.7445 144.14 32.4028L146.4 37.9609C148.918 36.9373 151.002 35.3944 152.486 33.268L147.566 29.8343ZM144.135 32.4049C142.531 33.0606 140.455 33.4432 137.821 33.4432V39.4432C141.005 39.4432 143.896 38.9848 146.405 37.9587L144.135 32.4049ZM137.821 33.4432C135.193 33.4432 133.044 33.0488 131.307 32.3483L129.063 37.9131C131.667 38.9626 134.608 39.4432 137.821 39.4432V33.4432ZM131.307 32.3483C129.64 31.6765 128.449 30.7084 127.609 29.4634L122.636 32.8207C124.205 35.1439 126.389 36.8348 129.063 37.9131L131.307 32.3483ZM127.609 29.4634C126.809 28.2792 126.293 26.635 126.264 24.3375L120.265 24.4125C120.304 27.5695 121.026 30.4367 122.636 32.8207L127.609 29.4634ZM123.264 27.375H131.344V21.375H123.264V27.375ZM128.35 24.5565C128.444 26.1165 128.878 27.6271 129.804 28.9277L134.691 25.4473C134.549 25.2479 134.38 24.8835 134.339 24.1935L128.35 24.5565ZM129.804 28.9277C130.695 30.1793 131.897 31.0828 133.297 31.6633L135.595 26.1208C135.132 25.9286 134.868 25.6957 134.691 25.4473L129.804 28.9277ZM133.309 31.6682C134.682 32.2305 136.172 32.4716 137.719 32.4716V26.4716C136.789 26.4716 136.097 26.3263 135.584 26.1159L133.309 31.6682ZM137.719 32.4716C139.109 32.4716 140.463 32.2861 141.696 31.8104L139.537 26.2124C139.18 26.3502 138.602 26.4716 137.719 26.4716V32.4716ZM141.683 31.8155C142.875 31.3623 143.987 30.6558 144.827 29.5951L140.123 25.8708C140.099 25.901 139.972 26.0468 139.55 26.2073L141.683 31.8155ZM144.827 29.5951C145.674 28.5255 146.117 27.261 146.139 25.9063L140.14 25.8096C140.139 25.8352 140.137 25.8492 140.137 25.8537C140.136 25.858 140.136 25.8569 140.137 25.8526C140.139 25.8483 140.14 25.8459 140.14 25.8466C140.139 25.8475 140.135 25.8556 140.123 25.8708L144.827 29.5951ZM146.139 25.8062C146.117 24.5079 145.693 23.2599 144.808 22.2227L140.244 26.1182C140.216 26.0848 140.181 26.0309 140.158 25.967C140.136 25.9059 140.139 25.8789 140.14 25.9097L146.139 25.8062ZM144.831 22.2499C144.012 21.2679 142.92 20.6181 141.825 20.1684L139.545 25.718C140.109 25.95 140.244 26.1185 140.221 26.091L144.831 22.2499ZM141.871 20.1877C140.833 19.7405 139.601 19.3683 138.227 19.0493L136.87 24.8939C138.041 25.1658 138.901 25.4413 139.499 25.6986L141.871 20.1877ZM138.231 19.0503L134.583 18.198L133.218 24.0406L136.866 24.8929L138.231 19.0503ZM134.571 18.1952C131.882 17.5785 130.009 16.6368 128.752 15.5191L124.766 20.0036C126.986 21.9768 129.874 23.2737 133.23 24.0434L134.571 18.1952ZM128.76 15.5264C127.75 14.6219 127.16 13.3857 127.168 11.4674L121.168 11.4417C121.153 14.8189 122.29 17.7872 124.758 19.9963L128.76 15.5264ZM127.168 11.4388C127.16 9.86192 127.571 8.60075 128.341 7.53177L123.472 4.02505C121.901 6.20607 121.154 8.72899 121.168 11.4703L127.168 11.4388ZM128.341 7.53177C129.16 6.39494 130.33 5.44543 131.972 4.72366L129.557 -0.769117C127.063 0.327301 124.994 1.91188 123.472 4.02505L128.341 7.53177ZM131.972 4.72366C133.6 4.00809 135.536 3.61364 137.838 3.61364V-2.38636C134.846 -2.38636 132.066 -1.87173 129.557 -0.769116L131.972 4.72366ZM137.838 3.61364C140.207 3.61364 142.106 4.0168 143.618 4.71683L146.138 -0.728194C143.673 -1.86907 140.879 -2.38636 137.838 -2.38636V3.61364ZM143.637 4.72542C145.185 5.42932 146.279 6.363 147.038 7.49761L152.025 4.16148C150.58 2.00064 148.571 0.377496 146.12 -0.736783L143.637 4.72542ZM147.038 7.49761C147.785 8.61484 148.202 9.94334 148.219 11.5882L154.219 11.5254C154.191 8.82938 153.482 6.3397 152.025 4.16148L147.038 7.49761ZM151.219 8.55682H143.139V14.5568H151.219V8.55682ZM173.927 36L171.046 36.8383L171.676 39H173.927V36ZM163.768 1.09091V-1.90909H159.77L160.887 1.92918L163.768 1.09091ZM173.092 1.09091L176.015 0.417762L175.479 -1.90909H173.092V1.09091ZM178.359 23.9659L175.435 24.6391L175.971 26.9659H178.359V23.9659ZM178.649 23.9659V26.9659H180.962L181.55 24.7291L178.649 23.9659ZM184.666 1.09091V-1.90909H182.353L181.764 0.327747L184.666 1.09091ZM192.268 1.09091L195.17 0.32934L194.582 -1.90909H192.268V1.09091ZM198.285 24.017L195.383 24.7786L195.971 27.017H198.285V24.017ZM198.575 24.017V27.017H200.962L201.498 24.6908L198.575 24.017ZM203.859 1.09091V-1.90909H201.472L200.935 0.417123L203.859 1.09091ZM213.166 1.09091L216.046 1.92788L217.161 -1.90909H213.166V1.09091ZM203.024 36V39H205.276L205.904 36.837L203.024 36ZM194.893 36L192.017 36.8544L192.655 39H194.893V36ZM188.603 14.8295L191.479 13.9752L190.841 11.8295H188.603V14.8295ZM188.33 14.8295V11.8295H186.092L185.455 13.9752L188.33 14.8295ZM182.041 36V39H184.279L184.916 36.8544L182.041 36ZM176.807 35.1617L166.648 0.252637L160.887 1.92918L171.046 36.8383L176.807 35.1617ZM163.768 4.09091H173.092V-1.90909H163.768V4.09091ZM170.168 1.76405L175.435 24.6391L181.282 23.2928L176.015 0.417762L170.168 1.76405ZM178.359 26.9659H178.649V20.9659H178.359V26.9659ZM181.55 24.7291L187.567 1.85407L181.764 0.327747L175.747 23.2027L181.55 24.7291ZM184.666 4.09091H192.268V-1.90909H184.666V4.09091ZM189.366 1.85248L195.383 24.7786L201.187 23.2555L195.17 0.32934L189.366 1.85248ZM198.285 27.017H198.575V21.017H198.285V27.017ZM201.498 24.6908L206.782 1.76469L200.935 0.417123L195.651 23.3433L201.498 24.6908ZM203.859 4.09091H213.166V-1.90909H203.859V4.09091ZM210.285 0.253934L200.143 35.163L205.904 36.837L216.046 1.92788L210.285 0.253934ZM203.024 33H194.893V39H203.024V33ZM197.769 35.1456L191.479 13.9752L185.727 15.6839L192.017 36.8544L197.769 35.1456ZM188.603 11.8295H188.33V17.8295H188.603V11.8295ZM185.455 13.9752L179.165 35.1456L184.916 36.8544L191.206 15.6839L185.455 13.9752ZM182.041 33H173.927V39H182.041V33ZM230.006 36V39H232.21L232.868 36.897L230.006 36ZM220.938 36L218.095 35.0409L216.759 39H220.938V36ZM232.716 1.09091V-1.90909H230.562L229.873 0.131822L232.716 1.09091ZM243.949 1.09091L246.791 0.131822L246.103 -1.90909H243.949V1.09091ZM255.727 36V39H259.906L258.57 35.0409L255.727 36ZM246.659 36L243.797 36.8987L244.457 39H246.659V36ZM238.46 9.88636L241.322 8.98771L240.663 6.88636H238.46V9.88636ZM238.188 9.88636V6.88636H235.984L235.325 8.98941L238.188 9.88636ZM228.795 22.2614V19.2614H225.795V22.2614H228.795ZM247.75 22.2614H250.75V19.2614H247.75V22.2614ZM247.75 28.6705V31.6705H250.75V28.6705H247.75ZM228.795 28.6705H225.795V31.6705H228.795V28.6705ZM230.006 33H220.938V39H230.006V33ZM223.78 36.9591L235.558 2.04999L229.873 0.131822L218.095 35.0409L223.78 36.9591ZM232.716 4.09091H243.949V-1.90909H232.716V4.09091ZM241.106 2.04999L252.885 36.9591L258.57 35.0409L246.791 0.131822L241.106 2.04999ZM255.727 33H246.659V39H255.727V33ZM249.521 35.1013L241.322 8.98771L235.598 10.785L243.797 36.8987L249.521 35.1013ZM238.46 6.88636H238.188V12.8864H238.46V6.88636ZM235.325 8.98941L227.143 35.103L232.868 36.897L241.05 10.7833L235.325 8.98941ZM228.795 25.2614H247.75V19.2614H228.795V25.2614ZM244.75 22.2614V28.6705H250.75V22.2614H244.75ZM247.75 25.6705H228.795V31.6705H247.75V25.6705ZM231.795 28.6705V22.2614H225.795V28.6705H231.795ZM269.086 36H266.086V39H269.086V36ZM269.086 1.09091V-1.90909H266.086V1.09091H269.086ZM290.273 2.625L288.85 5.2659L288.859 5.27098L288.869 5.27598L290.273 2.625ZM294.688 6.86932L292.08 8.35247L292.084 8.35949L294.688 6.86932ZM294.654 19.5L292.064 17.9853L292.061 17.9904L294.654 19.5ZM290.171 23.6761L291.531 26.35L290.171 23.6761ZM274.353 25.1591H271.353V28.1591H274.353V25.1591ZM274.353 18.5114V15.5114H271.353V18.5114H274.353ZM284.87 17.8466L283.5 15.1775L283.493 15.1812L283.486 15.1849L284.87 17.8466ZM286.83 15.9886L289.451 17.4487L289.455 17.4409L289.46 17.433L286.83 15.9886ZM286.83 10.3807L284.209 11.8408L284.214 11.8488L284.218 11.8569L286.83 10.3807ZM284.87 8.53977L283.528 11.2231L284.87 8.53977ZM277.523 7.89205V4.89205H274.523V7.89205H277.523ZM277.523 36V39H280.523V36H277.523ZM272.086 36V1.09091H266.086V36H272.086ZM269.086 4.09091H283.506V-1.90909H269.086V4.09091ZM283.506 4.09091C285.728 4.09091 287.473 4.524 288.85 5.2659L291.697 -0.0159044C289.278 -1.31945 286.512 -1.90909 283.506 -1.90909V4.09091ZM288.869 5.27598C290.292 6.02961 291.338 7.04693 292.08 8.35246L297.296 5.38617C295.97 3.05534 294.073 1.24311 291.678 -0.0259809L288.869 5.27598ZM292.084 8.35949C292.822 9.64762 293.239 11.2208 293.239 13.1761H299.239C299.239 10.336 298.623 7.70466 297.292 5.37914L292.084 8.35949ZM293.239 13.1761C293.239 15.1344 292.814 16.7037 292.064 17.9854L297.244 21.0146C298.608 18.6827 299.239 16.036 299.239 13.1761H293.239ZM292.061 17.9904C291.321 19.2622 290.266 20.2617 288.811 21.0023L291.531 26.35C293.962 25.1133 295.896 23.3288 297.247 21.0096L292.061 17.9904ZM288.811 21.0023C287.373 21.7336 285.553 22.1591 283.251 22.1591V28.1591C286.289 28.1591 289.082 27.5959 291.531 26.35L288.811 21.0023ZM283.251 22.1591H274.353V28.1591H283.251V22.1591ZM277.353 25.1591V18.5114H271.353V25.1591H277.353ZM274.353 21.5114H281.682V15.5114H274.353V21.5114ZM281.682 21.5114C283.287 21.5114 284.858 21.2341 286.254 20.5082L283.486 15.1849C283.177 15.3455 282.624 15.5114 281.682 15.5114V21.5114ZM286.24 20.5157C287.594 19.8207 288.7 18.7967 289.451 17.4487L284.209 14.5285C284.074 14.7715 283.873 14.9861 283.5 15.1775L286.24 20.5157ZM289.46 17.433C290.182 16.1172 290.495 14.6677 290.495 13.1761H284.495C284.495 13.8209 284.364 14.2464 284.201 14.5443L289.46 17.433ZM290.495 13.1761C290.495 11.682 290.186 10.2206 289.442 8.90451L284.218 11.8569C284.361 12.1089 284.495 12.5112 284.495 13.1761H290.495ZM289.451 8.92057C288.696 7.56544 287.58 6.54095 286.212 5.85649L283.528 11.2231C283.887 11.4022 284.078 11.605 284.209 11.8408L289.451 8.92057ZM286.212 5.85649C284.824 5.16261 283.272 4.89205 281.682 4.89205V10.892C282.615 10.892 283.189 11.0533 283.528 11.2231L286.212 5.85649ZM281.682 4.89205H277.523V10.892H281.682V4.89205ZM274.523 7.89205V36H280.523V7.89205H274.523ZM277.523 33H269.086V39H277.523V33Z"
        fill="#C3ED1C" />
</svg>
    